<svg xmlns="http://www.w3.org/2000/svg" xmlns:xlink="http://www.w3.org/1999/xlink" viewBox="0 0 78.13 78.15"><defs><style>.cls-1,.cls-3,.cls-6{fill:none;}.cls-2{fill:#c9ced1;}.cls-3{stroke:#c9ced1;}.cls-3,.cls-6{stroke-miterlimit:10;stroke-width:4px;}.cls-4{clip-path:url(#clip-path);}.cls-5{fill:#f1f3f4;}.cls-6{stroke:#f1f3f4;}</style><clipPath id="clip-path" transform="translate(0 -3.23)"><rect class="cls-1" width="38.54" height="84.6"/></clipPath></defs><title>Asset 6</title><g id="Layer_2" data-name="Layer 2"><g id="Layer_1-2" data-name="Layer 1"><path class="cls-2" d="M37.63,3.23h2.88a2.51,2.51,0,0,0,.27,0l1.4.08A34.26,34.26,0,0,1,46.91,4,39.21,39.21,0,0,1,77.32,34.13c.2.87.33,1.75.45,2.63a26,26,0,0,1,.3,3.42c0,.22,0,.45.06.67v2.88c0,.12,0,.24,0,.37,0,.36,0,.73,0,1.09a40,40,0,0,1-.54,4.21A39.17,39.17,0,0,1,53.1,78.77a38,38,0,0,1-8,2.13,44.49,44.49,0,0,1-4.47.44,40,40,0,0,1-10.47-1A39.08,39.08,0,0,1,10.82,69.27,39,39,0,0,1,0,43.07c0-.79,0-1.58,0-2.37A37,37,0,0,1,.5,36.13a37.39,37.39,0,0,1,2-7.44,38.44,38.44,0,0,1,7-11.88,38.89,38.89,0,0,1,15-10.73A37.94,37.94,0,0,1,37.33,3.27C37.43,3.27,37.53,3.24,37.63,3.23ZM68.82,42.54A30.24,30.24,0,1,0,38.59,72.76,30.23,30.23,0,0,0,68.82,42.54Z" transform="translate(0 -3.23)"/><path class="cls-3" d="M30.35,38.92c-.06-.46-.55-4.39,2.21-7a8.37,8.37,0,0,1,6.1-1.88c1.56,0,4.17,0,6.14,2,2.6,2.58,2,6.41,1.88,6.84" transform="translate(0 -3.23)"/><rect class="cls-3" x="27.55" y="37.52" width="21.99" height="14.29"/><rect class="cls-2" x="37.63" y="42.05" width="1.83" height="3.62"/><g class="cls-4"><path class="cls-5" d="M37.63,3.23h2.88l.27,0,1.4.08A34.26,34.26,0,0,1,46.91,4,39.14,39.14,0,0,1,69.28,17.5a39,39,0,0,1,8,16.63c.2.87.33,1.75.45,2.63a26,26,0,0,1,.3,3.41c0,.23,0,.46.06.68v2.88c0,.12,0,.24,0,.36,0,.37,0,.73,0,1.1a40,40,0,0,1-.54,4.21A39.17,39.17,0,0,1,53.1,78.77a39.24,39.24,0,0,1-8,2.13,44.49,44.49,0,0,1-4.47.44,37,37,0,0,1-5.95-.23,38.06,38.06,0,0,1-4.52-.76A39.08,39.08,0,0,1,0,43.07c0-.79,0-1.58,0-2.37A36.64,36.64,0,0,1,.5,36.13a37.39,37.39,0,0,1,2-7.44,38.44,38.44,0,0,1,7-11.88,38.89,38.89,0,0,1,15-10.73A37.94,37.94,0,0,1,37.33,3.27C37.43,3.27,37.53,3.24,37.63,3.23ZM68.82,42.54A30.24,30.24,0,1,0,38.59,72.76,30.24,30.24,0,0,0,68.82,42.54Z" transform="translate(0 -3.23)"/><path class="cls-6" d="M30.35,38.91c-.06-.45-.55-4.38,2.21-6.95,2-1.89,4.62-1.88,6.1-1.87s4.17,0,6.14,2c2.6,2.59,2,6.42,1.88,6.84" transform="translate(0 -3.23)"/><rect class="cls-6" x="27.55" y="37.52" width="21.99" height="14.29"/><rect class="cls-5" x="37.63" y="42.05" width="1.83" height="3.62"/></g></g></g></svg>