<svg xmlns="http://www.w3.org/2000/svg" viewBox="0 0 79.49 79.49"><defs><style>.cls-1,.cls-2{fill:none;stroke-miterlimit:10;stroke-width:9px;}.cls-1{stroke:#ee6e31;}.cls-2{stroke:#f68e49;}.cls-3{fill:#f68e4a;}.cls-4{fill:#ee6e31;}</style></defs><title>Asset 7</title><g id="Layer_2" data-name="Layer 2"><g id="Layer_1-2" data-name="Layer 1"><circle class="cls-1" cx="39.75" cy="39.75" r="35.25"/><path class="cls-2" d="M39.75,75a35.25,35.25,0,1,1,0-70.49"/><path class="cls-3" d="M33.44,42.24h5.2A10.45,10.45,0,0,1,36,47.32a10.81,10.81,0,0,1-7.17,3.44,11,11,0,1,1,9.85-13.57H33.43a6,6,0,1,0,0,5.05Z"/><path class="cls-4" d="M62.58,37.2H57.32c0-.09-.1-.19-.16-.28A6,6,0,0,0,46,38.24a6,6,0,0,0,11.05,4.42.73.73,0,0,1,.76-.44c1.46,0,2.92,0,4.38,0h.34a11,11,0,1,1,0-5Z"/></g></g></svg>