<svg xmlns="http://www.w3.org/2000/svg" viewBox="0 0 55.18 55.18"><defs><style>.cls-1,.cls-2{fill:none;stroke:#c9ced1;stroke-miterlimit:10;}.cls-1{stroke-width:6.6px;}.cls-2{stroke-width:3px;}</style></defs><title>Asset 10</title><g id="Layer_2" data-name="Layer 2"><g id="Layer_1-2" data-name="Layer 1"><path class="cls-1" d="M16.64,21.4,5.52,32.52a7.63,7.63,0,0,0,0,10.76l6.38,6.38a7.63,7.63,0,0,0,10.76,0L33.78,38.54"/><path class="cls-1" d="M39.78,32.54l9.88-9.88a7.63,7.63,0,0,0,0-10.76L43.28,5.52a7.63,7.63,0,0,0-10.76,0L22.64,15.4"/><line class="cls-2" x1="6.43" y1="5.21" x2="12.97" y2="11.75"/><line class="cls-2" x1="1.95" y1="11.47" x2="10.33" y2="15.38"/><line class="cls-2" x1="16.69" y1="9.16" x2="12.79" y2="0.79"/><line class="cls-2" x1="49.69" y1="48.44" x2="43.16" y2="41.9"/><line class="cls-2" x1="54.18" y1="42.18" x2="45.8" y2="38.27"/><line class="cls-2" x1="39.43" y1="44.48" x2="43.34" y2="52.86"/></g></g></svg>