<svg xmlns="http://www.w3.org/2000/svg" viewBox="0 0 54.57 54.72"><defs><style>.cls-1,.cls-2{fill:none;stroke:#ee6e31;stroke-miterlimit:10;}.cls-1{stroke-width:6px;}.cls-2{stroke-width:3px;}</style></defs><title>Asset 26</title><g id="Layer_2" data-name="Layer 2"><g id="Layer_1-2" data-name="Layer 1"><path class="cls-1" d="M16.34,21.25,5.22,32.36a7.64,7.64,0,0,0,0,10.77l6.37,6.37a7.64,7.64,0,0,0,10.77,0L33.48,38.39"/><path class="cls-1" d="M39.48,32.39l9.87-9.88a7.63,7.63,0,0,0,0-10.76L43,5.37a7.64,7.64,0,0,0-10.77,0l-9.87,9.88"/><line class="cls-2" x1="6.13" y1="5.06" x2="12.67" y2="11.59"/><line class="cls-2" x1="1.65" y1="11.32" x2="10.02" y2="15.22"/><line class="cls-2" x1="16.39" y1="9.01" x2="12.48" y2="0.63"/><line class="cls-2" x1="49.39" y1="48.29" x2="42.85" y2="41.75"/><line class="cls-2" x1="53.88" y1="42.03" x2="45.5" y2="38.12"/><line class="cls-2" x1="39.13" y1="44.33" x2="43.04" y2="52.71"/></g></g></svg>