<svg xmlns="http://www.w3.org/2000/svg" viewBox="0 0 94.59 87.44"><defs><style>.cls-1{fill:#ee6e31;}.cls-2{fill:none;}.cls-3{fill:#f68e49;}</style></defs><title>Asset 12</title><g id="Layer_2" data-name="Layer 2"><g id="Layer_1-2" data-name="Layer 1"><path class="cls-1" d="M18.94,64.42,25,67.79l4.71-6.6,7,4.94,2.42-3L31.79,50.61c-.06-.11-.15-.18-.21-.28V31.06l1.76-3a1.31,1.31,0,0,0-1.15-2H19.26a1.31,1.31,0,0,0-1.15,2l1.76,3V50.33c-.06.1-.15.17-.21.28L10.08,67.32l4.8,2.81Z"/><polygon class="cls-2" points="47.82 87.44 2.85 87.44 0 63.71 47.82 63.71 47.82 87.44"/><circle class="cls-3" cx="19.8" cy="11.46" r="2.79"/><circle class="cls-3" cx="34.99" cy="5.17" r="5.17"/><circle class="cls-3" cx="29.17" cy="17.63" r="3.37"/><path class="cls-3" d="M45.91,75.05,40.35,65.4l-3,4.38L30.25,65l-4.33,6.88-6.34-3.84-4.09,5.8L8.94,69.35l-3.37,5.5a7.21,7.21,0,0,0,6.13,10.7H39.61C45,85.55,48.58,79.67,45.91,75.05Z"/><path class="cls-3" d="M28.29,63.17H12.46l-2.38,4.15,4.8,2.81,4.06-5.71"/><polyline class="cls-3" points="31.16 63.17 32.53 63.17 36.73 66.13 39.15 63.17 39.15 63.17 29.77 63.17"/><polyline class="cls-3" points="18.94 64.42 25 67.79 28.29 63.17"/><line class="cls-3" x1="94.59" y1="66.77" x2="94.54" y2="66.84"/></g></g></svg>