<svg xmlns="http://www.w3.org/2000/svg" xmlns:xlink="http://www.w3.org/1999/xlink" viewBox="0 0 64.83 71.73"><defs><style>.cls-1{fill:none;}.cls-2{fill:#f1f3f4;}.cls-3,.cls-5{fill:#c9ced1;}.cls-4{clip-path:url(#clip-path);}.cls-5{stroke:#c9ced1;stroke-width:1.09px;}.cls-5,.cls-6{stroke-miterlimit:10;}.cls-6{fill:#fff;stroke:#fff;stroke-width:1.09px;}</style><clipPath id="clip-path" transform="translate(-2.87 -3.57)"><rect class="cls-1" width="28.95" height="78.9"/></clipPath></defs><title>Asset 8</title><g id="Layer_2" data-name="Layer 2"><g id="Layer_1-2" data-name="Layer 1"><polygon class="cls-2" points="64.83 29.39 36.18 25.39 36.18 21.73 64.83 17.73 64.83 29.39"/><path class="cls-3" d="M62.52,43.87a2.35,2.35,0,0,1-2,1.13H58.28a.79.79,0,0,0-.79.8v9.42a4,4,0,0,1-4,4h-7.1A2.39,2.39,0,0,0,44,61.29l-1.6,13.13a.79.79,0,0,1-.79.7h-.09c-.44,0-27.13.44-27.08,0a.8.8,0,0,1-.73-.85l1.15-14a8.8,8.8,0,0,0-.75-4.32L5,35.66a15.32,15.32,0,0,1-1.47-6c0-.46,0-.92,0-1.38l.11-1.58a25.81,25.81,0,0,1,26.73-23A25.38,25.38,0,0,1,54.22,24a9.92,9.92,0,0,0,.81,2.5l7.59,15A2.36,2.36,0,0,1,62.52,43.87Z" transform="translate(-2.87 -3.57)"/><g class="cls-4"><path class="cls-2" d="M61.91,43.83a2.38,2.38,0,0,1-2,1.14H57.67a.8.8,0,0,0-.8.79v9.43a4,4,0,0,1-4,4H45.79a2.4,2.4,0,0,0-2.37,2.1L41.83,74.38a.79.79,0,0,1-.79.7h-.1c-.43,0-27.13.44-27.07,0a.8.8,0,0,1-.73-.86l1.14-14a8.67,8.67,0,0,0-.75-4.32L4.34,35.63a15.58,15.58,0,0,1-1.47-6c0-.47,0-.92,0-1.38L3,26.62a25.83,25.83,0,0,1,26.74-23A25.38,25.38,0,0,1,53.6,24a9.7,9.7,0,0,0,.82,2.49l7.59,15A2.37,2.37,0,0,1,61.91,43.83Z" transform="translate(-2.87 -3.57)"/></g><rect class="cls-5" x="18.2" y="19.23" width="13.5" height="1.94" transform="translate(-4.43 34.73) rotate(-73.3)"/><polygon class="cls-5" points="14.68 10.47 9.5 15.97 8.88 16.63 9.5 17.29 14.68 22.79 16.09 21.46 11.54 16.63 16.09 11.79 14.68 10.47 14.68 10.47"/><polygon class="cls-6" points="29.49 10.47 28.07 11.79 32.62 16.63 28.07 21.46 29.49 22.79 34.66 17.29 35.29 16.63 34.66 15.97 29.49 10.47"/></g></g></svg>