<svg xmlns="http://www.w3.org/2000/svg" xmlns:xlink="http://www.w3.org/1999/xlink" viewBox="0 0 99.24 74.17"><defs><style>.cls-1{fill:none;}.cls-2{fill:#f68e49;}.cls-3{fill:#ee6e31;}.cls-4{clip-path:url(#clip-path);}.cls-5{fill:#fff;stroke:#fff;stroke-miterlimit:10;stroke-width:1.12px;}</style><clipPath id="clip-path" transform="translate(-2.97 -3.69)"><rect class="cls-1" width="29.94" height="81.59"/></clipPath></defs><title>Asset 9</title><g id="Layer_2" data-name="Layer 2"><g id="Layer_1-2" data-name="Layer 1"><polygon class="cls-2" points="99.24 39.01 47.58 28.01 47.58 22.35 99.24 11.35 99.24 39.01"/><path class="cls-3" d="M64.68,45.36a2.44,2.44,0,0,1-2.1,1.18H60.29a.82.82,0,0,0-.82.82v9.75a4.11,4.11,0,0,1-4.1,4.1H48a2.47,2.47,0,0,0-2.45,2.17L43.92,77a.83.83,0,0,1-.82.73H43c-.45-.06-28,.45-28,0a.81.81,0,0,1-.75-.88l1.18-14.51a9,9,0,0,0-.77-4.47L5.16,36.88a16.13,16.13,0,0,1-1.53-6.25c0-.48,0-.95,0-1.42l.11-1.64A26.7,26.7,0,0,1,31.43,3.75a26.25,26.25,0,0,1,24.66,21.1,9.89,9.89,0,0,0,.85,2.58L64.78,43A2.44,2.44,0,0,1,64.68,45.36Z" transform="translate(-2.97 -3.69)"/><g class="cls-4"><path class="cls-2" d="M64,45.33a2.46,2.46,0,0,1-2.1,1.17H59.63a.82.82,0,0,0-.82.82v9.75a4.11,4.11,0,0,1-4.11,4.11H47.35a2.48,2.48,0,0,0-2.45,2.16L43.25,76.92a.82.82,0,0,1-.81.72h-.1c-.45,0-28.05.46-28,0a.83.83,0,0,1-.75-.89l1.18-14.51A9,9,0,0,0,14,57.77L4.49,36.84A15.86,15.86,0,0,1,3,30.59c0-.47,0-.95,0-1.42l.11-1.64A26.76,26.76,0,0,1,30.76,3.71,26.25,26.25,0,0,1,55.43,24.82a9.94,9.94,0,0,0,.85,2.57l7.84,15.53A2.46,2.46,0,0,1,64,45.33Z" transform="translate(-2.97 -3.69)"/></g><path class="cls-5" d="M27,15.07,23,28.45,24.9,29l4-13.37Zm-8.71.61-5.35,5.68-.65.69.65.68,5.35,5.68,1.47-1.36-4.71-5,4.71-5-1.47-1.37Zm15.32,0-1.46,1.37,4.7,5-4.7,5,1.46,1.36L39,22.73l.65-.68L39,21.36Z" transform="translate(-2.97 -3.69)"/></g></g></svg>