<svg xmlns="http://www.w3.org/2000/svg" viewBox="0 0 64.67 100.64"><defs><style>.cls-1{fill:#c9ced1;}.cls-2{fill:none;stroke:#f1f3f4;stroke-miterlimit:10;stroke-width:4px;}.cls-3{fill:#f1f3f4;}.cls-4{fill:#fff;}</style></defs><title>Asset 17</title><g id="Layer_2" data-name="Layer 2"><g id="Layer_1-2" data-name="Layer 1"><rect class="cls-1" width="64.67" height="81.72"/><line class="cls-2" x1="11.07" y1="27" x2="53.3" y2="27"/><line class="cls-2" x1="11.07" y1="36.95" x2="53.3" y2="36.95"/><line class="cls-2" x1="11.07" y1="17.98" x2="53.3" y2="17.98"/><rect class="cls-1" y="90.33" width="64.67" height="10.31"/><rect class="cls-3" y="90.33" width="53.3" height="10.31"/><path class="cls-4" d="M47.93,64.29l-3.12-5.4a4.42,4.42,0,0,1,3.83-6.63h6.23a4.42,4.42,0,0,1,3.83,6.63l-3.11,5.4A4.42,4.42,0,0,1,47.93,64.29Z"/><path class="cls-4" d="M47.93,65.61,44.81,71a4.42,4.42,0,0,0,3.83,6.63h6.23A4.42,4.42,0,0,0,58.7,71l-3.11-5.39A4.42,4.42,0,0,0,47.93,65.61Z"/><path class="cls-1" d="M46.23,71.21a3.47,3.47,0,0,0,3.05,5.2h4.95a3.47,3.47,0,0,0,3.05-5.2"/><rect class="cls-1" x="51.22" y="64.13" width="1.08" height="7.66"/><path class="cls-1" d="M55.63,61.22c-.15.25-.35.65-.55,1L54,64a3,3,0,0,1-2.2.9c-.61,0-1.89-.28-2.24-.88l-1.08-1.78a7.71,7.71,0,0,1-.59-1"/></g></g></svg>