<svg xmlns="http://www.w3.org/2000/svg" viewBox="0 0 64.67 81.72"><defs><style>.cls-1{fill:#c9ced1;}.cls-2{fill:#fff;}.cls-3{fill:#f1f3f4;}</style></defs><title>Asset 13</title><g id="Layer_2" data-name="Layer 2"><g id="Layer_1-2" data-name="Layer 1"><rect class="cls-1" width="64.67" height="81.72"/><path class="cls-2" d="M47.93,64.29l-3.12-5.4a4.42,4.42,0,0,1,3.83-6.63h6.23a4.42,4.42,0,0,1,3.83,6.63l-3.11,5.4A4.42,4.42,0,0,1,47.93,64.29Z"/><path class="cls-2" d="M47.93,65.61,44.81,71a4.42,4.42,0,0,0,3.83,6.63h6.23A4.42,4.42,0,0,0,58.7,71l-3.11-5.39A4.42,4.42,0,0,0,47.93,65.61Z"/><path class="cls-1" d="M46.23,71.21a3.47,3.47,0,0,0,3.05,5.2h4.95a3.47,3.47,0,0,0,3.05-5.2"/><rect class="cls-1" x="51.22" y="64.13" width="1.08" height="7.66"/><path class="cls-1" d="M55.63,61.22c-.15.25-.35.65-.55,1L54,64a3,3,0,0,1-2.2.9c-.61,0-1.89-.28-2.24-.88l-1.08-1.78a7.71,7.71,0,0,1-.59-1"/><polygon class="cls-3" points="15.55 10.2 17.38 13.91 21.48 14.51 18.52 17.4 19.22 21.49 15.55 19.56 11.88 21.49 12.58 17.4 9.61 14.51 13.71 13.91 15.55 10.2"/><polygon class="cls-3" points="31.7 10.2 33.53 13.91 37.63 14.51 34.66 17.4 35.37 21.49 31.7 19.56 28.03 21.49 28.73 17.4 25.76 14.51 29.86 13.91 31.7 10.2"/><polygon class="cls-3" points="47.85 10.2 49.68 13.91 53.78 14.51 50.81 17.4 51.52 21.49 47.85 19.56 44.18 21.49 44.88 17.4 41.91 14.51 46.01 13.91 47.85 10.2"/></g></g></svg>