<svg xmlns="http://www.w3.org/2000/svg" viewBox="0 0 90.04 69.71"><defs><style>.cls-1{fill:#ee6e31;}.cls-2{fill:#fff;}.cls-3{fill:#f68e49;}</style></defs><title>Asset 16</title><g id="Layer_2" data-name="Layer 2"><g id="Layer_1-2" data-name="Layer 1"><path class="cls-1" d="M78,58.67l-10,11,0-11H12a12,12,0,0,1-12-12V12A12,12,0,0,1,12,0H78A12,12,0,0,1,90,12V46.67A12,12,0,0,1,78,58.67Z"/><path class="cls-2" d="M17.69,27.85H10.56V19.06c0-3.94,3.24-5.53,6.76-6V16.3c-1.49.16-2.72.85-2.72,2.55V20.5h3.09Zm9.21,0H19.77V19.06c0-3.94,3.25-5.53,6.76-6V16.3c-1.49.16-2.72.85-2.72,2.55V20.5H26.9Z"/><path class="cls-3" d="M32.68,38.6h6.11v6.29H32.68Z"/><path class="cls-3" d="M42.31,38.6h6.1v6.29h-6.1Z"/><path class="cls-3" d="M51.94,38.6H58v6.29h-6.1Z"/><path class="cls-2" d="M63.86,13.05H71v8.78c0,3.94-3.25,5.54-6.77,6V24.6c1.5-.16,2.72-.85,2.72-2.55V20.4H63.86Zm9.21,0h7.14v8.78c0,3.94-3.25,5.54-6.77,6V24.6c1.5-.16,2.72-.85,2.72-2.55V20.4H73.07Z"/></g></g></svg>