<?xml version="1.0" standalone="no"?><!-- Generator: Gravit.io --><svg xmlns="http://www.w3.org/2000/svg" xmlns:xlink="http://www.w3.org/1999/xlink" style="isolation:isolate" viewBox="0 0 419.528 595.276" width="419.528" height="595.276"><defs><clipPath id="_clipPath_SzJrHyJqQT5Eip67PwobXc3rEhuXGKC9"><rect width="419.528" height="595.276"/></clipPath></defs><g clip-path="url(#_clipPath_SzJrHyJqQT5Eip67PwobXc3rEhuXGKC9)"><g id="Header"><rect x="-0.548" y="0" width="420.185" height="69.67" transform="matrix(1,0,0,1,0,0)" fill="rgb(57,151,211)"/><g transform="matrix(0.176,0,0,0.176,12.066,13.22)"><text transform="matrix(1,0,0,1,0,188.613)" style="font-family:&quot;Roboto Slab&quot;;font-weight:700;font-size:180px;font-style:normal;fill:#ffffff;stroke:none;">Code is Science Manifesto</text></g></g><g id="Group"><g transform="matrix(0.332,0,0,0.332,20.214,518.273)"><text transform="matrix(1,0,0,1,0,71.254)" style="font-family:&quot;Roboto Slab&quot;;font-weight:700;font-size:68px;font-style:normal;fill:#464646;stroke:none;">Pledge support (or volunteer!) at</text></g><g transform="matrix(0.332,0,0,0.332,11.584,542.641)"><text transform="matrix(1,0,0,1,0,75.445)" style="font-family:&quot;Roboto Mono&quot;;font-weight:400;font-size:72px;font-style:normal;fill:#464646;stroke:none;">codeisscience.com/manifesto</text></g></g><g id="code-is-science-model-2"><g id="Layer_1-2"><path d=" M 283.327 320.198 L 283.327 315.929 L 288.968 315.929 L 288.968 320.198 L 283.327 320.198 Z  M 283.327 339.603 L 283.327 322.277 L 288.968 322.277 L 288.968 339.645 L 283.327 339.603 Z " fill="rgb(76,76,77)"/><path d=" M 300.965 327.537 C 300.861 326.304 300.272 325.701 298.567 325.701 C 296.862 325.701 296.273 326.124 296.273 326.83 C 296.273 327.357 297.049 327.856 298.352 328.217 C 303.203 329.519 306.669 330.192 306.669 334.322 C 306.669 337.787 304.867 340.109 298.768 340.109 C 293.515 340.109 290.41 337.746 290.341 334.08 L 296.044 334.08 C 296.044 335.209 297.028 336.159 298.816 336.159 C 300.404 336.159 301.214 335.84 301.214 335.064 C 301.214 334.288 300.896 333.865 299.454 333.511 C 292.683 331.924 290.95 330.199 290.95 326.879 C 290.95 324.301 292.822 321.868 298.713 321.868 C 303.896 321.868 305.906 324.017 306.156 327.586 L 300.965 327.537 Z " fill="rgb(76,76,77)"/><path d=" M 274.865 345.882 C 270.911 341.241 268.732 335.347 268.718 329.249 C 268.685 323.332 270.88 317.62 274.865 313.247 L 279.176 313.247 C 276.385 318.148 274.89 323.679 274.83 329.318 C 274.897 335.113 276.389 340.801 279.176 345.882 L 274.865 345.882 Z " fill="rgb(57,151,211)"/><path d=" M 308.443 345.882 C 311.202 340.792 312.682 335.108 312.754 329.318 C 312.707 323.682 311.223 318.15 308.443 313.247 L 312.754 313.247 C 316.744 317.618 318.944 323.331 318.915 329.249 C 318.9 335.347 316.722 341.241 312.767 345.882 L 308.443 345.882 Z " fill="rgb(229,77,60)"/><path d=" M 191.104 329.61 C 189.836 336.471 184.971 341.031 177.791 341.031 C 169.703 341.031 163.521 335.625 163.521 325.264 C 163.521 315.042 169.017 308.818 177.881 308.818 C 185.608 308.818 190.515 313.67 191.104 319.727 L 183.335 319.727 C 182.698 316.816 180.563 315.499 177.93 315.499 C 173.293 315.499 171.387 319.041 171.387 324.814 C 171.387 330.587 173.161 334.267 177.569 334.267 C 180.979 334.267 182.614 332.541 183.342 329.63 L 191.104 329.61 Z " fill="rgb(76,76,77)"/><path d=" M 191.79 328.792 C 191.79 321.702 196.288 317.01 203.572 317.01 C 210.856 317.01 215.201 321.646 215.201 328.792 C 215.201 335.937 210.703 340.573 203.572 340.573 C 196.15 340.56 191.79 335.743 191.79 328.792 Z  M 207.876 328.792 C 207.876 324.793 206.49 323.157 203.558 323.157 C 200.627 323.157 199.289 324.793 199.289 328.792 C 199.289 332.791 200.606 334.475 203.558 334.475 C 206.51 334.475 207.876 332.714 207.876 328.792 Z " fill="rgb(76,76,77)"/><path d=" M 231.82 339.97 L 231.73 337.427 C 230.649 339.393 228.568 340.598 226.325 340.56 C 220.69 340.56 216.622 335.972 216.622 328.521 C 216.622 322.021 219.893 317.024 225.631 317.024 C 228.223 317.024 230.448 317.793 231.585 320.156 L 231.585 309.435 L 238.716 309.435 L 238.716 339.97 L 231.82 339.97 Z  M 231.91 328.882 C 231.91 324.793 230.275 323.199 227.863 323.199 C 225.451 323.199 224.003 324.744 224.003 328.882 C 224.003 333.019 225.458 334.655 227.863 334.655 C 230.268 334.655 231.91 332.971 231.91 328.882 Z " fill="rgb(76,76,77)"/><path d=" M 247.906 330.635 C 248.086 332.908 249.68 334.793 251.724 334.793 C 253.111 334.793 254.448 334.204 254.677 333.407 L 262.127 333.407 C 260.741 337.995 256.95 340.587 252.085 340.587 C 244.461 340.587 240.636 336.429 240.636 328.411 C 240.636 321.48 244.683 317.052 251.676 317.052 C 258.038 317.052 262.487 320.822 262.487 328.23 C 262.485 329.034 262.439 329.837 262.349 330.635 L 247.906 330.635 Z  M 255.224 326.408 C 254.996 323.864 253.838 322.776 251.634 322.776 C 249.43 322.776 248.225 323.864 248.003 326.408 L 255.224 326.408 Z " fill="rgb(76,76,77)"/><path d=" M 211.493 365.98 C 210.842 371.261 206.4 374.83 200.744 374.83 C 194.396 374.83 190.044 370.707 190.044 362.557 C 190.044 354.407 194.396 350.837 200.932 350.837 C 207.044 350.837 211.168 354.219 211.542 359.59 L 204.113 359.59 C 203.86 358.034 202.494 356.905 200.918 356.95 C 199.109 356.95 197.397 358.107 197.397 362.37 C 197.397 366.632 199.109 368.607 200.731 368.607 C 202.539 368.607 203.925 367.727 204.064 365.966 L 211.493 365.98 Z " fill="rgb(76,76,77)"/><path d=" M 214.266 348.654 L 214.266 343.11 L 221.681 343.11 L 221.681 348.654 L 214.266 348.654 Z  M 214.266 374.179 L 214.266 351.426 L 221.681 351.426 L 221.681 374.221 L 214.266 374.179 Z " fill="rgb(76,76,77)"/><path d=" M 232.174 364.67 C 232.361 366.985 233.983 368.933 236.069 368.933 C 237.503 368.933 238.841 368.33 239.076 367.498 L 246.7 367.498 C 245.265 372.176 241.419 374.817 236.464 374.817 C 228.681 374.817 224.786 370.603 224.786 362.404 C 224.786 355.363 228.91 350.823 236.041 350.823 C 242.528 350.823 247.067 354.67 247.067 362.217 C 247.066 363.037 247.02 363.856 246.929 364.67 L 232.174 364.67 Z  M 239.631 360.36 C 239.402 357.768 238.245 356.652 235.972 356.652 C 233.698 356.652 232.506 357.761 232.264 360.36 L 239.631 360.36 Z " fill="rgb(76,76,77)"/><path d=" M 263.679 374.214 L 263.679 359.743 C 263.679 357.518 262.612 356.638 260.623 356.638 C 258.634 356.638 257.331 357.518 257.331 359.743 L 257.331 374.2 L 249.916 374.2 L 249.916 351.426 L 256.957 351.426 L 256.957 353.838 C 258.204 351.759 260.339 350.83 263.305 350.83 C 267.893 350.83 271.136 353.838 271.136 357.761 L 271.136 374.255 L 263.679 374.214 Z " fill="rgb(76,76,77)"/><path d=" M 295.594 365.98 C 294.942 371.261 290.5 374.83 284.845 374.83 C 278.497 374.83 274.144 370.707 274.144 362.557 C 274.144 354.407 278.497 350.837 285.032 350.837 C 291.145 350.837 295.268 354.219 295.642 359.59 L 288.178 359.59 C 287.934 358.015 286.549 356.872 284.956 356.929 C 283.147 356.929 281.435 358.087 281.435 362.349 C 281.435 366.611 283.147 368.586 284.769 368.586 C 286.577 368.586 287.963 367.706 288.102 365.946 L 295.594 365.98 Z " fill="rgb(76,76,77)"/><path d=" M 304.028 364.67 C 304.215 366.985 305.837 368.933 307.923 368.933 C 309.358 368.933 310.695 368.33 310.931 367.498 L 318.554 367.498 C 317.12 372.176 313.273 374.817 308.318 374.817 C 300.535 374.817 296.64 370.603 296.64 362.404 C 296.64 355.363 300.764 350.823 307.895 350.823 C 314.382 350.823 318.922 354.67 318.922 362.217 C 318.92 363.037 318.874 363.856 318.783 364.67 L 304.028 364.67 Z  M 311.485 360.36 C 311.257 357.768 310.099 356.652 307.826 356.652 C 305.553 356.652 304.361 357.761 304.118 360.36 L 311.485 360.36 Z " fill="rgb(76,76,77)"/><path d=" M 144.165 313.247 C 143.846 312.554 129.798 317.474 129.798 317.474 C 129.798 317.474 115.757 312.568 115.431 313.247 L 115.487 313.288 C 103.421 338.765 119.645 367.145 119.645 367.145 C 119.984 367.757 120.629 368.137 121.329 368.136 L 138.385 368.136 C 139.081 368.143 139.723 367.761 140.048 367.145 C 140.048 367.145 156.23 338.73 144.144 313.268 L 144.165 313.247 Z " fill="rgb(237,240,241)"/><path d=" M 144.144 313.254 C 156.23 338.737 140.048 367.131 140.048 367.131 C 139.723 367.747 139.081 368.129 138.385 368.122 L 129.798 368.122 L 129.798 317.467 C 137.123 317.003 141.67 314.979 144.144 313.254 Z " fill="rgb(189,195,199)"/><path d=" M 129.798 295.983 C 124.468 295.983 118.342 307.107 115.431 313.247 C 117.933 314.973 122.472 317.003 129.798 317.467 C 137.123 316.996 141.69 314.959 144.165 313.24 C 141.254 307.113 135.127 295.983 129.798 295.983 Z " fill="rgb(244,122,55)"/><path d=" M 129.798 295.983 L 129.798 317.467 C 137.123 316.996 141.69 314.959 144.165 313.24 C 141.254 307.113 135.127 295.983 129.798 295.983 Z " fill="rgb(231,88,37)"/><path d=" M 115.507 347.961 L 121.329 364.275 C 121.457 364.511 121.438 364.8 121.279 365.017 C 121.121 365.233 120.851 365.339 120.587 365.287 C 120.587 365.287 109.721 364.144 109.707 374.352 C 109.707 374.352 109.748 375.246 108.944 375.246 L 104.765 375.246 C 104.102 375.211 103.509 374.822 103.213 374.227 C 103.213 374.227 94.148 353.506 115.507 347.961 Z " fill="rgb(244,122,55)"/><path d=" M 144.088 347.961 L 138.267 364.275 C 138.138 364.511 138.158 364.8 138.316 365.017 C 138.475 365.233 138.745 365.339 139.008 365.287 C 139.008 365.287 149.875 364.144 149.889 374.352 C 149.889 374.352 149.848 375.246 150.651 375.246 L 154.81 375.246 C 155.473 375.211 156.066 374.822 156.362 374.227 C 156.362 374.227 165.448 353.506 144.088 347.961 Z " fill="rgb(231,88,37)"/><path d=" M 119.271 332.229 C 119.271 326.45 123.963 321.757 129.742 321.757 C 135.522 321.757 140.214 326.45 140.214 332.229 C 140.214 338.009 135.522 342.701 129.742 342.701 C 123.963 342.701 119.271 338.009 119.271 332.229 Z " fill="rgb(76,122,189)"/><path d=" M 129.715 340.664 C 125.06 340.648 121.298 336.865 121.308 332.211 C 121.318 327.556 125.097 323.79 129.752 323.795 C 134.406 323.8 138.177 327.575 138.177 332.229 C 138.175 334.47 137.282 336.619 135.695 338.201 C 134.107 339.783 131.956 340.669 129.715 340.664 L 129.715 340.664 Z " fill="rgb(237,240,241)"/><path d=" M 180.667 352.528 C 180.619 349.985 179.135 348.654 175.455 348.654 C 172.538 348.654 171.006 349.396 171.006 351.426 C 171.006 352.632 171.796 353.79 174.991 354.718 C 184.624 357.546 189.032 358.793 189.032 365.883 C 189.032 371.906 184.257 375.288 177.126 375.288 C 167.534 375.288 163.369 371.767 163.133 365.003 L 170.472 365.003 C 170.563 367.415 173.023 368.891 176.017 368.891 C 180.279 368.891 181.561 367.824 181.561 365.883 C 181.561 364.171 180.452 363.381 177.209 362.363 C 167.277 359.292 163.805 357.719 163.805 351.745 C 163.805 346.416 167.603 342.431 175.338 342.431 C 182.795 342.431 187.521 346.554 187.895 352.528 L 180.667 352.528 Z " fill="rgb(76,76,77)"/><rect x="123.47" y="368.94" width="8.85" height="2.405" transform="matrix(1,0,0,1,0,0)" fill="rgb(135,151,202)"/><rect x="133.464" y="368.94" width="3.417" height="2.405" transform="matrix(1,0,0,1,0,0)" fill="rgb(250,191,19)"/><rect x="127.206" y="372.744" width="11.262" height="2.405" transform="matrix(1,0,0,1,0,0)" fill="rgb(229,77,60)"/><rect x="121.918" y="372.744" width="4.297" height="2.405" transform="matrix(1,0,0,1,0,0)" fill="rgb(244,158,30)"/><rect x="127.206" y="383.757" width="3.022" height="2.405" transform="matrix(1,0,0,1,0,0)" fill="rgb(244,158,30)"/><rect x="131.357" y="383.757" width="6.258" height="2.405" transform="matrix(1,0,0,1,0,0)" fill="rgb(59,151,211)"/><rect x="121.918" y="383.757" width="4.297" height="2.405" transform="matrix(1,0,0,1,0,0)" fill="rgb(80,186,111)"/><rect x="125.224" y="376.203" width="4.519" height="2.405" transform="matrix(1,0,0,1,0,0)" fill="rgb(80,186,111)"/><rect x="131.149" y="376.203" width="4.519" height="2.405" transform="matrix(1,0,0,1,0,0)" fill="rgb(250,191,19)"/><rect x="126.936" y="387.222" width="7.422" height="2.405" transform="matrix(1,0,0,1,0,0)" fill="rgb(146,94,167)"/><rect x="118.217" y="376.203" width="5.69" height="2.405" transform="matrix(1,0,0,1,0,0)" fill="rgb(244,158,30)"/><rect x="136.839" y="376.203" width="5.69" height="2.405" transform="matrix(1,0,0,1,0,0)" fill="rgb(59,151,211)"/><rect x="124.642" y="379.883" width="11.581" height="2.405" transform="matrix(1,0,0,1,0,0)" fill="rgb(229,77,60)"/><rect x="116.852" y="379.883" width="6.327" height="2.405" transform="matrix(1,0,0,1,0,0)" fill="rgb(244,158,30)"/><rect x="137.567" y="379.883" width="6.327" height="2.405" transform="matrix(1,0,0,1,0,0)" fill="rgb(244,158,30)"/></g></g><g id="Group"><rect x="0.434" y="69.725" width="419.009" height="146.96" transform="matrix(1,0,0,1,0,0)" fill="rgb(235,235,235)"/><g transform="matrix(0.175,0,0,0.175,10.827,86.121)"><text transform="matrix(1,0,0,1,744.994,100.594)" style="font-family:&quot;Roboto Slab&quot;;font-weight:700;font-size:96px;font-style:normal;fill:#5f5f60;stroke:none;">Open over closed</text><text transform="matrix(1,0,0,1,176.283,227.203)" style="font-family:&quot;Roboto Slab&quot;;font-weight:700;font-size:96px;font-style:normal;fill:#5f5f60;stroke:none;">Incorrect code results in incorrect science</text><text transform="matrix(1,0,0,1,706.088,353.813)" style="font-family:&quot;Roboto Slab&quot;;font-weight:700;font-size:96px;font-style:normal;fill:#5f5f60;stroke:none;">Code for the future</text><text transform="matrix(1,0,0,1,510.338,480.422)" style="font-family:&quot;Roboto Slab&quot;;font-weight:700;font-size:96px;font-style:normal;fill:#5f5f60;stroke:none;">Availability over perfection</text><text transform="matrix(1,0,0,1,663.338,607.031)" style="font-family:&quot;Roboto Slab&quot;;font-weight:700;font-size:96px;font-style:normal;fill:#5f5f60;stroke:none;">Code deserves credit</text></g></g><g transform="matrix(0.176,0,0,0.176,12.704,230.923)"><text transform="matrix(1,0,0,1,73.61,111.328)" style="font-family:&quot;Roboto&quot;;font-weight:400;font-size:120px;font-style:normal;fill:#3997d3;stroke:none;">Scientific code needs to be treated as a </text><text transform="matrix(1,0,0,1,485.143,251.953)" style="font-family:&quot;Roboto&quot;;font-weight:400;font-size:120px;font-style:normal;fill:#3997d3;stroke:none;">primary research output</text></g><g id="qrcode"><rect x="171.879" y="400.438" width="109.699" height="109.699" transform="matrix(1,0,0,1,0,0)" fill="rgb(255,255,255)"/><g id="elements"><path d=" M 155.262 400.438 L 159.045 400.438 L 159.045 404.221 L 155.262 404.221 L 155.262 400.438 Z  M 159.045 400.438 L 162.828 400.438 L 162.828 404.221 L 159.045 404.221 L 159.045 400.438 Z  M 162.828 400.438 L 166.61 400.438 L 166.61 404.221 L 162.828 404.221 L 162.828 400.438 Z  M 166.61 400.438 L 170.393 400.438 L 170.393 404.221 L 166.61 404.221 L 166.61 400.438 Z  M 170.393 400.438 L 174.176 400.438 L 174.176 404.221 L 170.393 404.221 L 170.393 400.438 Z  M 174.176 400.438 L 177.959 400.438 L 177.959 404.221 L 174.176 404.221 L 174.176 400.438 Z  M 177.959 400.438 L 181.741 400.438 L 181.741 404.221 L 177.959 404.221 L 177.959 400.438 Z  M 193.09 400.438 L 196.872 400.438 L 196.872 404.221 L 193.09 404.221 L 193.09 400.438 Z  M 200.655 400.438 L 204.438 400.438 L 204.438 404.221 L 200.655 404.221 L 200.655 400.438 Z  M 208.221 400.438 L 212.003 400.438 L 212.003 404.221 L 208.221 404.221 L 208.221 400.438 Z  M 215.786 400.438 L 219.569 400.438 L 219.569 404.221 L 215.786 404.221 L 215.786 400.438 Z  M 223.351 400.438 L 227.134 400.438 L 227.134 404.221 L 223.351 404.221 L 223.351 400.438 Z  M 227.134 400.438 L 230.917 400.438 L 230.917 404.221 L 227.134 404.221 L 227.134 400.438 Z  M 230.917 400.438 L 234.7 400.438 L 234.7 404.221 L 230.917 404.221 L 230.917 400.438 Z  M 238.482 400.438 L 242.265 400.438 L 242.265 404.221 L 238.482 404.221 L 238.482 400.438 Z  M 242.265 400.438 L 246.048 400.438 L 246.048 404.221 L 242.265 404.221 L 242.265 400.438 Z  M 246.048 400.438 L 249.831 400.438 L 249.831 404.221 L 246.048 404.221 L 246.048 400.438 Z  M 249.831 400.438 L 253.613 400.438 L 253.613 404.221 L 249.831 404.221 L 249.831 400.438 Z  M 253.613 400.438 L 257.396 400.438 L 257.396 404.221 L 253.613 404.221 L 253.613 400.438 Z  M 257.396 400.438 L 261.179 400.438 L 261.179 404.221 L 257.396 404.221 L 257.396 400.438 Z  M 261.179 400.438 L 264.961 400.438 L 264.961 404.221 L 261.179 404.221 L 261.179 400.438 Z  M 155.262 404.221 L 159.045 404.221 L 159.045 408.004 L 155.262 408.004 L 155.262 404.221 Z  M 177.959 404.221 L 181.741 404.221 L 181.741 408.004 L 177.959 408.004 L 177.959 404.221 Z  M 185.524 404.221 L 189.307 404.221 L 189.307 408.004 L 185.524 408.004 L 185.524 404.221 Z  M 193.09 404.221 L 196.872 404.221 L 196.872 408.004 L 193.09 408.004 L 193.09 404.221 Z  M 208.221 404.221 L 212.003 404.221 L 212.003 408.004 L 208.221 408.004 L 208.221 404.221 Z  M 212.003 404.221 L 215.786 404.221 L 215.786 408.004 L 212.003 408.004 L 212.003 404.221 Z  M 215.786 404.221 L 219.569 404.221 L 219.569 408.004 L 215.786 408.004 L 215.786 404.221 Z  M 219.569 404.221 L 223.351 404.221 L 223.351 408.004 L 219.569 408.004 L 219.569 404.221 Z  M 223.351 404.221 L 227.134 404.221 L 227.134 408.004 L 223.351 408.004 L 223.351 404.221 Z  M 238.482 404.221 L 242.265 404.221 L 242.265 408.004 L 238.482 408.004 L 238.482 404.221 Z  M 261.179 404.221 L 264.961 404.221 L 264.961 408.004 L 261.179 408.004 L 261.179 404.221 Z  M 155.262 408.004 L 159.045 408.004 L 159.045 411.786 L 155.262 411.786 L 155.262 408.004 Z  M 162.828 408.004 L 166.61 408.004 L 166.61 411.786 L 162.828 411.786 L 162.828 408.004 Z  M 166.61 408.004 L 170.393 408.004 L 170.393 411.786 L 166.61 411.786 L 166.61 408.004 Z  M 170.393 408.004 L 174.176 408.004 L 174.176 411.786 L 170.393 411.786 L 170.393 408.004 Z  M 177.959 408.004 L 181.741 408.004 L 181.741 411.786 L 177.959 411.786 L 177.959 408.004 Z  M 200.655 408.004 L 204.438 408.004 L 204.438 411.786 L 200.655 411.786 L 200.655 408.004 Z  M 227.134 408.004 L 230.917 408.004 L 230.917 411.786 L 227.134 411.786 L 227.134 408.004 Z  M 230.917 408.004 L 234.7 408.004 L 234.7 411.786 L 230.917 411.786 L 230.917 408.004 Z  M 238.482 408.004 L 242.265 408.004 L 242.265 411.786 L 238.482 411.786 L 238.482 408.004 Z  M 246.048 408.004 L 249.831 408.004 L 249.831 411.786 L 246.048 411.786 L 246.048 408.004 Z  M 249.831 408.004 L 253.613 408.004 L 253.613 411.786 L 249.831 411.786 L 249.831 408.004 Z  M 253.613 408.004 L 257.396 408.004 L 257.396 411.786 L 253.613 411.786 L 253.613 408.004 Z  M 261.179 408.004 L 264.961 408.004 L 264.961 411.786 L 261.179 411.786 L 261.179 408.004 Z  M 155.262 411.786 L 159.045 411.786 L 159.045 415.569 L 155.262 415.569 L 155.262 411.786 Z  M 162.828 411.786 L 166.61 411.786 L 166.61 415.569 L 162.828 415.569 L 162.828 411.786 Z  M 166.61 411.786 L 170.393 411.786 L 170.393 415.569 L 166.61 415.569 L 166.61 411.786 Z  M 170.393 411.786 L 174.176 411.786 L 174.176 415.569 L 170.393 415.569 L 170.393 411.786 Z  M 177.959 411.786 L 181.741 411.786 L 181.741 415.569 L 177.959 415.569 L 177.959 411.786 Z  M 185.524 411.786 L 189.307 411.786 L 189.307 415.569 L 185.524 415.569 L 185.524 411.786 Z  M 189.307 411.786 L 193.09 411.786 L 193.09 415.569 L 189.307 415.569 L 189.307 411.786 Z  M 193.09 411.786 L 196.872 411.786 L 196.872 415.569 L 193.09 415.569 L 193.09 411.786 Z  M 200.655 411.786 L 204.438 411.786 L 204.438 415.569 L 200.655 415.569 L 200.655 411.786 Z  M 204.438 411.786 L 208.221 411.786 L 208.221 415.569 L 204.438 415.569 L 204.438 411.786 Z  M 208.221 411.786 L 212.003 411.786 L 212.003 415.569 L 208.221 415.569 L 208.221 411.786 Z  M 212.003 411.786 L 215.786 411.786 L 215.786 415.569 L 212.003 415.569 L 212.003 411.786 Z  M 215.786 411.786 L 219.569 411.786 L 219.569 415.569 L 215.786 415.569 L 215.786 411.786 Z  M 219.569 411.786 L 223.351 411.786 L 223.351 415.569 L 219.569 415.569 L 219.569 411.786 Z  M 227.134 411.786 L 230.917 411.786 L 230.917 415.569 L 227.134 415.569 L 227.134 411.786 Z  M 238.482 411.786 L 242.265 411.786 L 242.265 415.569 L 238.482 415.569 L 238.482 411.786 Z  M 246.048 411.786 L 249.831 411.786 L 249.831 415.569 L 246.048 415.569 L 246.048 411.786 Z  M 249.831 411.786 L 253.613 411.786 L 253.613 415.569 L 249.831 415.569 L 249.831 411.786 Z  M 253.613 411.786 L 257.396 411.786 L 257.396 415.569 L 253.613 415.569 L 253.613 411.786 Z  M 261.179 411.786 L 264.961 411.786 L 264.961 415.569 L 261.179 415.569 L 261.179 411.786 Z  M 155.262 415.569 L 159.045 415.569 L 159.045 419.352 L 155.262 419.352 L 155.262 415.569 Z  M 162.828 415.569 L 166.61 415.569 L 166.61 419.352 L 162.828 419.352 L 162.828 415.569 Z  M 166.61 415.569 L 170.393 415.569 L 170.393 419.352 L 166.61 419.352 L 166.61 415.569 Z  M 170.393 415.569 L 174.176 415.569 L 174.176 419.352 L 170.393 419.352 L 170.393 415.569 Z  M 177.959 415.569 L 181.741 415.569 L 181.741 419.352 L 177.959 419.352 L 177.959 415.569 Z  M 189.307 415.569 L 193.09 415.569 L 193.09 419.352 L 189.307 419.352 L 189.307 415.569 Z  M 204.438 415.569 L 208.221 415.569 L 208.221 419.352 L 204.438 419.352 L 204.438 415.569 Z  M 215.786 415.569 L 219.569 415.569 L 219.569 419.352 L 215.786 419.352 L 215.786 415.569 Z  M 223.351 415.569 L 227.134 415.569 L 227.134 419.352 L 223.351 419.352 L 223.351 415.569 Z  M 227.134 415.569 L 230.917 415.569 L 230.917 419.352 L 227.134 419.352 L 227.134 415.569 Z  M 230.917 415.569 L 234.7 415.569 L 234.7 419.352 L 230.917 419.352 L 230.917 415.569 Z  M 238.482 415.569 L 242.265 415.569 L 242.265 419.352 L 238.482 419.352 L 238.482 415.569 Z  M 246.048 415.569 L 249.831 415.569 L 249.831 419.352 L 246.048 419.352 L 246.048 415.569 Z  M 249.831 415.569 L 253.613 415.569 L 253.613 419.352 L 249.831 419.352 L 249.831 415.569 Z  M 253.613 415.569 L 257.396 415.569 L 257.396 419.352 L 253.613 419.352 L 253.613 415.569 Z  M 261.179 415.569 L 264.961 415.569 L 264.961 419.352 L 261.179 419.352 L 261.179 415.569 Z  M 155.262 419.352 L 159.045 419.352 L 159.045 423.135 L 155.262 423.135 L 155.262 419.352 Z  M 177.959 419.352 L 181.741 419.352 L 181.741 423.135 L 177.959 423.135 L 177.959 419.352 Z  M 185.524 419.352 L 189.307 419.352 L 189.307 423.135 L 185.524 423.135 L 185.524 419.352 Z  M 189.307 419.352 L 193.09 419.352 L 193.09 423.135 L 189.307 423.135 L 189.307 419.352 Z  M 196.872 419.352 L 200.655 419.352 L 200.655 423.135 L 196.872 423.135 L 196.872 419.352 Z  M 200.655 419.352 L 204.438 419.352 L 204.438 423.135 L 200.655 423.135 L 200.655 419.352 Z  M 204.438 419.352 L 208.221 419.352 L 208.221 423.135 L 204.438 423.135 L 204.438 419.352 Z  M 208.221 419.352 L 212.003 419.352 L 212.003 423.135 L 208.221 423.135 L 208.221 419.352 Z  M 212.003 419.352 L 215.786 419.352 L 215.786 423.135 L 212.003 423.135 L 212.003 419.352 Z  M 215.786 419.352 L 219.569 419.352 L 219.569 423.135 L 215.786 423.135 L 215.786 419.352 Z  M 230.917 419.352 L 234.7 419.352 L 234.7 423.135 L 230.917 423.135 L 230.917 419.352 Z  M 238.482 419.352 L 242.265 419.352 L 242.265 423.135 L 238.482 423.135 L 238.482 419.352 Z  M 261.179 419.352 L 264.961 419.352 L 264.961 423.135 L 261.179 423.135 L 261.179 419.352 Z  M 155.262 423.135 L 159.045 423.135 L 159.045 426.917 L 155.262 426.917 L 155.262 423.135 Z  M 159.045 423.135 L 162.828 423.135 L 162.828 426.917 L 159.045 426.917 L 159.045 423.135 Z  M 162.828 423.135 L 166.61 423.135 L 166.61 426.917 L 162.828 426.917 L 162.828 423.135 Z  M 166.61 423.135 L 170.393 423.135 L 170.393 426.917 L 166.61 426.917 L 166.61 423.135 Z  M 170.393 423.135 L 174.176 423.135 L 174.176 426.917 L 170.393 426.917 L 170.393 423.135 Z  M 174.176 423.135 L 177.959 423.135 L 177.959 426.917 L 174.176 426.917 L 174.176 423.135 Z  M 177.959 423.135 L 181.741 423.135 L 181.741 426.917 L 177.959 426.917 L 177.959 423.135 Z  M 185.524 423.135 L 189.307 423.135 L 189.307 426.917 L 185.524 426.917 L 185.524 423.135 Z  M 193.09 423.135 L 196.872 423.135 L 196.872 426.917 L 193.09 426.917 L 193.09 423.135 Z  M 200.655 423.135 L 204.438 423.135 L 204.438 426.917 L 200.655 426.917 L 200.655 423.135 Z  M 208.221 423.135 L 212.003 423.135 L 212.003 426.917 L 208.221 426.917 L 208.221 423.135 Z  M 215.786 423.135 L 219.569 423.135 L 219.569 426.917 L 215.786 426.917 L 215.786 423.135 Z  M 223.351 423.135 L 227.134 423.135 L 227.134 426.917 L 223.351 426.917 L 223.351 423.135 Z  M 230.917 423.135 L 234.7 423.135 L 234.7 426.917 L 230.917 426.917 L 230.917 423.135 Z  M 238.482 423.135 L 242.265 423.135 L 242.265 426.917 L 238.482 426.917 L 238.482 423.135 Z  M 242.265 423.135 L 246.048 423.135 L 246.048 426.917 L 242.265 426.917 L 242.265 423.135 Z  M 246.048 423.135 L 249.831 423.135 L 249.831 426.917 L 246.048 426.917 L 246.048 423.135 Z  M 249.831 423.135 L 253.613 423.135 L 253.613 426.917 L 249.831 426.917 L 249.831 423.135 Z  M 253.613 423.135 L 257.396 423.135 L 257.396 426.917 L 253.613 426.917 L 253.613 423.135 Z  M 257.396 423.135 L 261.179 423.135 L 261.179 426.917 L 257.396 426.917 L 257.396 423.135 Z  M 261.179 423.135 L 264.961 423.135 L 264.961 426.917 L 261.179 426.917 L 261.179 423.135 Z  M 189.307 426.917 L 193.09 426.917 L 193.09 430.7 L 189.307 430.7 L 189.307 426.917 Z  M 193.09 426.917 L 196.872 426.917 L 196.872 430.7 L 193.09 430.7 L 193.09 426.917 Z  M 196.872 426.917 L 200.655 426.917 L 200.655 430.7 L 196.872 430.7 L 196.872 426.917 Z  M 208.221 426.917 L 212.003 426.917 L 212.003 430.7 L 208.221 430.7 L 208.221 426.917 Z  M 212.003 426.917 L 215.786 426.917 L 215.786 430.7 L 212.003 430.7 L 212.003 426.917 Z  M 215.786 426.917 L 219.569 426.917 L 219.569 430.7 L 215.786 430.7 L 215.786 426.917 Z  M 230.917 426.917 L 234.7 426.917 L 234.7 430.7 L 230.917 430.7 L 230.917 426.917 Z  M 155.262 430.7 L 159.045 430.7 L 159.045 434.483 L 155.262 434.483 L 155.262 430.7 Z  M 159.045 430.7 L 162.828 430.7 L 162.828 434.483 L 159.045 434.483 L 159.045 430.7 Z  M 162.828 430.7 L 166.61 430.7 L 166.61 434.483 L 162.828 434.483 L 162.828 430.7 Z  M 166.61 430.7 L 170.393 430.7 L 170.393 434.483 L 166.61 434.483 L 166.61 430.7 Z  M 170.393 430.7 L 174.176 430.7 L 174.176 434.483 L 170.393 434.483 L 170.393 430.7 Z  M 177.959 430.7 L 181.741 430.7 L 181.741 434.483 L 177.959 434.483 L 177.959 430.7 Z  M 181.741 430.7 L 185.524 430.7 L 185.524 434.483 L 181.741 434.483 L 181.741 430.7 Z  M 185.524 430.7 L 189.307 430.7 L 189.307 434.483 L 185.524 434.483 L 185.524 430.7 Z  M 189.307 430.7 L 193.09 430.7 L 193.09 434.483 L 189.307 434.483 L 189.307 430.7 Z  M 196.872 430.7 L 200.655 430.7 L 200.655 434.483 L 196.872 434.483 L 196.872 430.7 Z  M 212.003 430.7 L 215.786 430.7 L 215.786 434.483 L 212.003 434.483 L 212.003 430.7 Z  M 219.569 430.7 L 223.351 430.7 L 223.351 434.483 L 219.569 434.483 L 219.569 430.7 Z  M 223.351 430.7 L 227.134 430.7 L 227.134 434.483 L 223.351 434.483 L 223.351 430.7 Z  M 234.7 430.7 L 238.482 430.7 L 238.482 434.483 L 234.7 434.483 L 234.7 430.7 Z  M 242.265 430.7 L 246.048 430.7 L 246.048 434.483 L 242.265 434.483 L 242.265 430.7 Z  M 249.831 430.7 L 253.613 430.7 L 253.613 434.483 L 249.831 434.483 L 249.831 430.7 Z  M 257.396 430.7 L 261.179 430.7 L 261.179 434.483 L 257.396 434.483 L 257.396 430.7 Z  M 159.045 434.483 L 162.828 434.483 L 162.828 438.265 L 159.045 438.265 L 159.045 434.483 Z  M 162.828 434.483 L 166.61 434.483 L 166.61 438.265 L 162.828 438.265 L 162.828 434.483 Z  M 166.61 434.483 L 170.393 434.483 L 170.393 438.265 L 166.61 438.265 L 166.61 434.483 Z  M 181.741 434.483 L 185.524 434.483 L 185.524 438.265 L 181.741 438.265 L 181.741 434.483 Z  M 193.09 434.483 L 196.872 434.483 L 196.872 438.265 L 193.09 438.265 L 193.09 434.483 Z  M 200.655 434.483 L 204.438 434.483 L 204.438 438.265 L 200.655 438.265 L 200.655 434.483 Z  M 204.438 434.483 L 208.221 434.483 L 208.221 438.265 L 204.438 438.265 L 204.438 434.483 Z  M 215.786 434.483 L 219.569 434.483 L 219.569 438.265 L 215.786 438.265 L 215.786 434.483 Z  M 219.569 434.483 L 223.351 434.483 L 223.351 438.265 L 219.569 438.265 L 219.569 434.483 Z  M 223.351 434.483 L 227.134 434.483 L 227.134 438.265 L 223.351 438.265 L 223.351 434.483 Z  M 227.134 434.483 L 230.917 434.483 L 230.917 438.265 L 227.134 438.265 L 227.134 434.483 Z  M 230.917 434.483 L 234.7 434.483 L 234.7 438.265 L 230.917 438.265 L 230.917 434.483 Z  M 234.7 434.483 L 238.482 434.483 L 238.482 438.265 L 234.7 438.265 L 234.7 434.483 Z  M 238.482 434.483 L 242.265 434.483 L 242.265 438.265 L 238.482 438.265 L 238.482 434.483 Z  M 242.265 434.483 L 246.048 434.483 L 246.048 438.265 L 242.265 438.265 L 242.265 434.483 Z  M 246.048 434.483 L 249.831 434.483 L 249.831 438.265 L 246.048 438.265 L 246.048 434.483 Z  M 261.179 434.483 L 264.961 434.483 L 264.961 438.265 L 261.179 438.265 L 261.179 434.483 Z  M 170.393 438.265 L 174.176 438.265 L 174.176 442.048 L 170.393 442.048 L 170.393 438.265 Z  M 174.176 438.265 L 177.959 438.265 L 177.959 442.048 L 174.176 442.048 L 174.176 438.265 Z  M 177.959 438.265 L 181.741 438.265 L 181.741 442.048 L 177.959 442.048 L 177.959 438.265 Z  M 193.09 438.265 L 196.872 438.265 L 196.872 442.048 L 193.09 442.048 L 193.09 438.265 Z  M 204.438 438.265 L 208.221 438.265 L 208.221 442.048 L 204.438 442.048 L 204.438 438.265 Z  M 208.221 438.265 L 212.003 438.265 L 212.003 442.048 L 208.221 442.048 L 208.221 438.265 Z  M 212.003 438.265 L 215.786 438.265 L 215.786 442.048 L 212.003 442.048 L 212.003 438.265 Z  M 219.569 438.265 L 223.351 438.265 L 223.351 442.048 L 219.569 442.048 L 219.569 438.265 Z  M 230.917 438.265 L 234.7 438.265 L 234.7 442.048 L 230.917 442.048 L 230.917 438.265 Z  M 238.482 438.265 L 242.265 438.265 L 242.265 442.048 L 238.482 442.048 L 238.482 438.265 Z  M 242.265 438.265 L 246.048 438.265 L 246.048 442.048 L 242.265 442.048 L 242.265 438.265 Z  M 159.045 442.048 L 162.828 442.048 L 162.828 445.831 L 159.045 445.831 L 159.045 442.048 Z  M 166.61 442.048 L 170.393 442.048 L 170.393 445.831 L 166.61 445.831 L 166.61 442.048 Z  M 170.393 442.048 L 174.176 442.048 L 174.176 445.831 L 170.393 445.831 L 170.393 442.048 Z  M 174.176 442.048 L 177.959 442.048 L 177.959 445.831 L 174.176 445.831 L 174.176 442.048 Z  M 185.524 442.048 L 189.307 442.048 L 189.307 445.831 L 185.524 445.831 L 185.524 442.048 Z  M 200.655 442.048 L 204.438 442.048 L 204.438 445.831 L 200.655 445.831 L 200.655 442.048 Z  M 204.438 442.048 L 208.221 442.048 L 208.221 445.831 L 204.438 445.831 L 204.438 442.048 Z  M 215.786 442.048 L 219.569 442.048 L 219.569 445.831 L 215.786 445.831 L 215.786 442.048 Z  M 223.351 442.048 L 227.134 442.048 L 227.134 445.831 L 223.351 445.831 L 223.351 442.048 Z  M 238.482 442.048 L 242.265 442.048 L 242.265 445.831 L 238.482 445.831 L 238.482 442.048 Z  M 246.048 442.048 L 249.831 442.048 L 249.831 445.831 L 246.048 445.831 L 246.048 442.048 Z  M 257.396 442.048 L 261.179 442.048 L 261.179 445.831 L 257.396 445.831 L 257.396 442.048 Z  M 155.262 445.831 L 159.045 445.831 L 159.045 449.614 L 155.262 449.614 L 155.262 445.831 Z  M 159.045 445.831 L 162.828 445.831 L 162.828 449.614 L 159.045 449.614 L 159.045 445.831 Z  M 162.828 445.831 L 166.61 445.831 L 166.61 449.614 L 162.828 449.614 L 162.828 445.831 Z  M 177.959 445.831 L 181.741 445.831 L 181.741 449.614 L 177.959 449.614 L 177.959 445.831 Z  M 181.741 445.831 L 185.524 445.831 L 185.524 449.614 L 181.741 449.614 L 181.741 445.831 Z  M 185.524 445.831 L 189.307 445.831 L 189.307 449.614 L 185.524 449.614 L 185.524 445.831 Z  M 189.307 445.831 L 193.09 445.831 L 193.09 449.614 L 189.307 449.614 L 189.307 445.831 Z  M 193.09 445.831 L 196.872 445.831 L 196.872 449.614 L 193.09 449.614 L 193.09 445.831 Z  M 200.655 445.831 L 204.438 445.831 L 204.438 449.614 L 200.655 449.614 L 200.655 445.831 Z  M 208.221 445.831 L 212.003 445.831 L 212.003 449.614 L 208.221 449.614 L 208.221 445.831 Z  M 212.003 445.831 L 215.786 445.831 L 215.786 449.614 L 212.003 449.614 L 212.003 445.831 Z  M 219.569 445.831 L 223.351 445.831 L 223.351 449.614 L 219.569 449.614 L 219.569 445.831 Z  M 227.134 445.831 L 230.917 445.831 L 230.917 449.614 L 227.134 449.614 L 227.134 445.831 Z  M 249.831 445.831 L 253.613 445.831 L 253.613 449.614 L 249.831 449.614 L 249.831 445.831 Z  M 253.613 445.831 L 257.396 445.831 L 257.396 449.614 L 253.613 449.614 L 253.613 445.831 Z  M 159.045 449.614 L 162.828 449.614 L 162.828 453.396 L 159.045 453.396 L 159.045 449.614 Z  M 166.61 449.614 L 170.393 449.614 L 170.393 453.396 L 166.61 453.396 L 166.61 449.614 Z  M 174.176 449.614 L 177.959 449.614 L 177.959 453.396 L 174.176 453.396 L 174.176 449.614 Z  M 181.741 449.614 L 185.524 449.614 L 185.524 453.396 L 181.741 453.396 L 181.741 449.614 Z  M 215.786 449.614 L 219.569 449.614 L 219.569 453.396 L 215.786 453.396 L 215.786 449.614 Z  M 223.351 449.614 L 227.134 449.614 L 227.134 453.396 L 223.351 453.396 L 223.351 449.614 Z  M 227.134 449.614 L 230.917 449.614 L 230.917 453.396 L 227.134 453.396 L 227.134 449.614 Z  M 230.917 449.614 L 234.7 449.614 L 234.7 453.396 L 230.917 453.396 L 230.917 449.614 Z  M 234.7 449.614 L 238.482 449.614 L 238.482 453.396 L 234.7 453.396 L 234.7 449.614 Z  M 238.482 449.614 L 242.265 449.614 L 242.265 453.396 L 238.482 453.396 L 238.482 449.614 Z  M 242.265 449.614 L 246.048 449.614 L 246.048 453.396 L 242.265 453.396 L 242.265 449.614 Z  M 246.048 449.614 L 249.831 449.614 L 249.831 453.396 L 246.048 453.396 L 246.048 449.614 Z  M 253.613 449.614 L 257.396 449.614 L 257.396 453.396 L 253.613 453.396 L 253.613 449.614 Z  M 261.179 449.614 L 264.961 449.614 L 264.961 453.396 L 261.179 453.396 L 261.179 449.614 Z  M 166.61 453.396 L 170.393 453.396 L 170.393 457.179 L 166.61 457.179 L 166.61 453.396 Z  M 170.393 453.396 L 174.176 453.396 L 174.176 457.179 L 170.393 457.179 L 170.393 453.396 Z  M 177.959 453.396 L 181.741 453.396 L 181.741 457.179 L 177.959 457.179 L 177.959 453.396 Z  M 185.524 453.396 L 189.307 453.396 L 189.307 457.179 L 185.524 457.179 L 185.524 453.396 Z  M 196.872 453.396 L 200.655 453.396 L 200.655 457.179 L 196.872 457.179 L 196.872 453.396 Z  M 200.655 453.396 L 204.438 453.396 L 204.438 457.179 L 200.655 457.179 L 200.655 453.396 Z  M 212.003 453.396 L 215.786 453.396 L 215.786 457.179 L 212.003 457.179 L 212.003 453.396 Z  M 215.786 453.396 L 219.569 453.396 L 219.569 457.179 L 215.786 457.179 L 215.786 453.396 Z  M 219.569 453.396 L 223.351 453.396 L 223.351 457.179 L 219.569 457.179 L 219.569 453.396 Z  M 223.351 453.396 L 227.134 453.396 L 227.134 457.179 L 223.351 457.179 L 223.351 453.396 Z  M 230.917 453.396 L 234.7 453.396 L 234.7 457.179 L 230.917 457.179 L 230.917 453.396 Z  M 253.613 453.396 L 257.396 453.396 L 257.396 457.179 L 253.613 457.179 L 253.613 453.396 Z  M 155.262 457.179 L 159.045 457.179 L 159.045 460.962 L 155.262 460.962 L 155.262 457.179 Z  M 162.828 457.179 L 166.61 457.179 L 166.61 460.962 L 162.828 460.962 L 162.828 457.179 Z  M 166.61 457.179 L 170.393 457.179 L 170.393 460.962 L 166.61 460.962 L 166.61 457.179 Z  M 196.872 457.179 L 200.655 457.179 L 200.655 460.962 L 196.872 460.962 L 196.872 457.179 Z  M 208.221 457.179 L 212.003 457.179 L 212.003 460.962 L 208.221 460.962 L 208.221 457.179 Z  M 212.003 457.179 L 215.786 457.179 L 215.786 460.962 L 212.003 460.962 L 212.003 457.179 Z  M 227.134 457.179 L 230.917 457.179 L 230.917 460.962 L 227.134 460.962 L 227.134 457.179 Z  M 234.7 457.179 L 238.482 457.179 L 238.482 460.962 L 234.7 460.962 L 234.7 457.179 Z  M 242.265 457.179 L 246.048 457.179 L 246.048 460.962 L 242.265 460.962 L 242.265 457.179 Z  M 257.396 457.179 L 261.179 457.179 L 261.179 460.962 L 257.396 460.962 L 257.396 457.179 Z  M 159.045 460.962 L 162.828 460.962 L 162.828 464.745 L 159.045 464.745 L 159.045 460.962 Z  M 166.61 460.962 L 170.393 460.962 L 170.393 464.745 L 166.61 464.745 L 166.61 460.962 Z  M 170.393 460.962 L 174.176 460.962 L 174.176 464.745 L 170.393 464.745 L 170.393 460.962 Z  M 177.959 460.962 L 181.741 460.962 L 181.741 464.745 L 177.959 464.745 L 177.959 460.962 Z  M 185.524 460.962 L 189.307 460.962 L 189.307 464.745 L 185.524 464.745 L 185.524 460.962 Z  M 193.09 460.962 L 196.872 460.962 L 196.872 464.745 L 193.09 464.745 L 193.09 460.962 Z  M 196.872 460.962 L 200.655 460.962 L 200.655 464.745 L 196.872 464.745 L 196.872 460.962 Z  M 219.569 460.962 L 223.351 460.962 L 223.351 464.745 L 219.569 464.745 L 219.569 460.962 Z  M 253.613 460.962 L 257.396 460.962 L 257.396 464.745 L 253.613 464.745 L 253.613 460.962 Z  M 155.262 464.745 L 159.045 464.745 L 159.045 468.527 L 155.262 468.527 L 155.262 464.745 Z  M 162.828 464.745 L 166.61 464.745 L 166.61 468.527 L 162.828 468.527 L 162.828 464.745 Z  M 166.61 464.745 L 170.393 464.745 L 170.393 468.527 L 166.61 468.527 L 166.61 464.745 Z  M 174.176 464.745 L 177.959 464.745 L 177.959 468.527 L 174.176 468.527 L 174.176 464.745 Z  M 185.524 464.745 L 189.307 464.745 L 189.307 468.527 L 185.524 468.527 L 185.524 464.745 Z  M 200.655 464.745 L 204.438 464.745 L 204.438 468.527 L 200.655 468.527 L 200.655 464.745 Z  M 204.438 464.745 L 208.221 464.745 L 208.221 468.527 L 204.438 468.527 L 204.438 464.745 Z  M 208.221 464.745 L 212.003 464.745 L 212.003 468.527 L 208.221 468.527 L 208.221 464.745 Z  M 215.786 464.745 L 219.569 464.745 L 219.569 468.527 L 215.786 468.527 L 215.786 464.745 Z  M 219.569 464.745 L 223.351 464.745 L 223.351 468.527 L 219.569 468.527 L 219.569 464.745 Z  M 223.351 464.745 L 227.134 464.745 L 227.134 468.527 L 223.351 468.527 L 223.351 464.745 Z  M 227.134 464.745 L 230.917 464.745 L 230.917 468.527 L 227.134 468.527 L 227.134 464.745 Z  M 230.917 464.745 L 234.7 464.745 L 234.7 468.527 L 230.917 468.527 L 230.917 464.745 Z  M 234.7 464.745 L 238.482 464.745 L 238.482 468.527 L 234.7 468.527 L 234.7 464.745 Z  M 238.482 464.745 L 242.265 464.745 L 242.265 468.527 L 238.482 468.527 L 238.482 464.745 Z  M 246.048 464.745 L 249.831 464.745 L 249.831 468.527 L 246.048 468.527 L 246.048 464.745 Z  M 249.831 464.745 L 253.613 464.745 L 253.613 468.527 L 249.831 468.527 L 249.831 464.745 Z  M 253.613 464.745 L 257.396 464.745 L 257.396 468.527 L 253.613 468.527 L 253.613 464.745 Z  M 261.179 464.745 L 264.961 464.745 L 264.961 468.527 L 261.179 468.527 L 261.179 464.745 Z  M 155.262 468.527 L 159.045 468.527 L 159.045 472.31 L 155.262 472.31 L 155.262 468.527 Z  M 162.828 468.527 L 166.61 468.527 L 166.61 472.31 L 162.828 472.31 L 162.828 468.527 Z  M 166.61 468.527 L 170.393 468.527 L 170.393 472.31 L 166.61 472.31 L 166.61 468.527 Z  M 174.176 468.527 L 177.959 468.527 L 177.959 472.31 L 174.176 472.31 L 174.176 468.527 Z  M 177.959 468.527 L 181.741 468.527 L 181.741 472.31 L 177.959 472.31 L 177.959 468.527 Z  M 181.741 468.527 L 185.524 468.527 L 185.524 472.31 L 181.741 472.31 L 181.741 468.527 Z  M 185.524 468.527 L 189.307 468.527 L 189.307 472.31 L 185.524 472.31 L 185.524 468.527 Z  M 204.438 468.527 L 208.221 468.527 L 208.221 472.31 L 204.438 472.31 L 204.438 468.527 Z  M 208.221 468.527 L 212.003 468.527 L 212.003 472.31 L 208.221 472.31 L 208.221 468.527 Z  M 212.003 468.527 L 215.786 468.527 L 215.786 472.31 L 212.003 472.31 L 212.003 468.527 Z  M 219.569 468.527 L 223.351 468.527 L 223.351 472.31 L 219.569 472.31 L 219.569 468.527 Z  M 230.917 468.527 L 234.7 468.527 L 234.7 472.31 L 230.917 472.31 L 230.917 468.527 Z  M 242.265 468.527 L 246.048 468.527 L 246.048 472.31 L 242.265 472.31 L 242.265 468.527 Z  M 249.831 468.527 L 253.613 468.527 L 253.613 472.31 L 249.831 472.31 L 249.831 468.527 Z  M 253.613 468.527 L 257.396 468.527 L 257.396 472.31 L 253.613 472.31 L 253.613 468.527 Z  M 155.262 472.31 L 159.045 472.31 L 159.045 476.093 L 155.262 476.093 L 155.262 472.31 Z  M 162.828 472.31 L 166.61 472.31 L 166.61 476.093 L 162.828 476.093 L 162.828 472.31 Z  M 166.61 472.31 L 170.393 472.31 L 170.393 476.093 L 166.61 476.093 L 166.61 472.31 Z  M 174.176 472.31 L 177.959 472.31 L 177.959 476.093 L 174.176 476.093 L 174.176 472.31 Z  M 181.741 472.31 L 185.524 472.31 L 185.524 476.093 L 181.741 476.093 L 181.741 472.31 Z  M 185.524 472.31 L 189.307 472.31 L 189.307 476.093 L 185.524 476.093 L 185.524 472.31 Z  M 193.09 472.31 L 196.872 472.31 L 196.872 476.093 L 193.09 476.093 L 193.09 472.31 Z  M 200.655 472.31 L 204.438 472.31 L 204.438 476.093 L 200.655 476.093 L 200.655 472.31 Z  M 204.438 472.31 L 208.221 472.31 L 208.221 476.093 L 204.438 476.093 L 204.438 472.31 Z  M 215.786 472.31 L 219.569 472.31 L 219.569 476.093 L 215.786 476.093 L 215.786 472.31 Z  M 227.134 472.31 L 230.917 472.31 L 230.917 476.093 L 227.134 476.093 L 227.134 472.31 Z  M 242.265 472.31 L 246.048 472.31 L 246.048 476.093 L 242.265 476.093 L 242.265 472.31 Z  M 246.048 472.31 L 249.831 472.31 L 249.831 476.093 L 246.048 476.093 L 246.048 472.31 Z  M 257.396 472.31 L 261.179 472.31 L 261.179 476.093 L 257.396 476.093 L 257.396 472.31 Z  M 155.262 476.093 L 159.045 476.093 L 159.045 479.876 L 155.262 479.876 L 155.262 476.093 Z  M 162.828 476.093 L 166.61 476.093 L 166.61 479.876 L 162.828 479.876 L 162.828 476.093 Z  M 166.61 476.093 L 170.393 476.093 L 170.393 479.876 L 166.61 479.876 L 166.61 476.093 Z  M 170.393 476.093 L 174.176 476.093 L 174.176 479.876 L 170.393 479.876 L 170.393 476.093 Z  M 174.176 476.093 L 177.959 476.093 L 177.959 479.876 L 174.176 479.876 L 174.176 476.093 Z  M 177.959 476.093 L 181.741 476.093 L 181.741 479.876 L 177.959 479.876 L 177.959 476.093 Z  M 181.741 476.093 L 185.524 476.093 L 185.524 479.876 L 181.741 479.876 L 181.741 476.093 Z  M 193.09 476.093 L 196.872 476.093 L 196.872 479.876 L 193.09 479.876 L 193.09 476.093 Z  M 200.655 476.093 L 204.438 476.093 L 204.438 479.876 L 200.655 479.876 L 200.655 476.093 Z  M 208.221 476.093 L 212.003 476.093 L 212.003 479.876 L 208.221 479.876 L 208.221 476.093 Z  M 219.569 476.093 L 223.351 476.093 L 223.351 479.876 L 219.569 479.876 L 219.569 476.093 Z  M 230.917 476.093 L 234.7 476.093 L 234.7 479.876 L 230.917 479.876 L 230.917 476.093 Z  M 234.7 476.093 L 238.482 476.093 L 238.482 479.876 L 234.7 479.876 L 234.7 476.093 Z  M 238.482 476.093 L 242.265 476.093 L 242.265 479.876 L 238.482 479.876 L 238.482 476.093 Z  M 242.265 476.093 L 246.048 476.093 L 246.048 479.876 L 242.265 479.876 L 242.265 476.093 Z  M 246.048 476.093 L 249.831 476.093 L 249.831 479.876 L 246.048 479.876 L 246.048 476.093 Z  M 253.613 476.093 L 257.396 476.093 L 257.396 479.876 L 253.613 479.876 L 253.613 476.093 Z  M 257.396 476.093 L 261.179 476.093 L 261.179 479.876 L 257.396 479.876 L 257.396 476.093 Z  M 261.179 476.093 L 264.961 476.093 L 264.961 479.876 L 261.179 479.876 L 261.179 476.093 Z  M 185.524 479.876 L 189.307 479.876 L 189.307 483.658 L 185.524 483.658 L 185.524 479.876 Z  M 215.786 479.876 L 219.569 479.876 L 219.569 483.658 L 215.786 483.658 L 215.786 479.876 Z  M 219.569 479.876 L 223.351 479.876 L 223.351 483.658 L 219.569 483.658 L 219.569 479.876 Z  M 223.351 479.876 L 227.134 479.876 L 227.134 483.658 L 223.351 483.658 L 223.351 479.876 Z  M 227.134 479.876 L 230.917 479.876 L 230.917 483.658 L 227.134 483.658 L 227.134 479.876 Z  M 230.917 479.876 L 234.7 479.876 L 234.7 483.658 L 230.917 483.658 L 230.917 479.876 Z  M 246.048 479.876 L 249.831 479.876 L 249.831 483.658 L 246.048 483.658 L 246.048 479.876 Z  M 249.831 479.876 L 253.613 479.876 L 253.613 483.658 L 249.831 483.658 L 249.831 479.876 Z  M 253.613 479.876 L 257.396 479.876 L 257.396 483.658 L 253.613 483.658 L 253.613 479.876 Z  M 257.396 479.876 L 261.179 479.876 L 261.179 483.658 L 257.396 483.658 L 257.396 479.876 Z  M 261.179 479.876 L 264.961 479.876 L 264.961 483.658 L 261.179 483.658 L 261.179 479.876 Z  M 155.262 483.658 L 159.045 483.658 L 159.045 487.441 L 155.262 487.441 L 155.262 483.658 Z  M 159.045 483.658 L 162.828 483.658 L 162.828 487.441 L 159.045 487.441 L 159.045 483.658 Z  M 162.828 483.658 L 166.61 483.658 L 166.61 487.441 L 162.828 487.441 L 162.828 483.658 Z  M 166.61 483.658 L 170.393 483.658 L 170.393 487.441 L 166.61 487.441 L 166.61 483.658 Z  M 170.393 483.658 L 174.176 483.658 L 174.176 487.441 L 170.393 487.441 L 170.393 483.658 Z  M 174.176 483.658 L 177.959 483.658 L 177.959 487.441 L 174.176 487.441 L 174.176 483.658 Z  M 177.959 483.658 L 181.741 483.658 L 181.741 487.441 L 177.959 487.441 L 177.959 483.658 Z  M 185.524 483.658 L 189.307 483.658 L 189.307 487.441 L 185.524 487.441 L 185.524 483.658 Z  M 189.307 483.658 L 193.09 483.658 L 193.09 487.441 L 189.307 487.441 L 189.307 483.658 Z  M 193.09 483.658 L 196.872 483.658 L 196.872 487.441 L 193.09 487.441 L 193.09 483.658 Z  M 196.872 483.658 L 200.655 483.658 L 200.655 487.441 L 196.872 487.441 L 196.872 483.658 Z  M 200.655 483.658 L 204.438 483.658 L 204.438 487.441 L 200.655 487.441 L 200.655 483.658 Z  M 212.003 483.658 L 215.786 483.658 L 215.786 487.441 L 212.003 487.441 L 212.003 483.658 Z  M 215.786 483.658 L 219.569 483.658 L 219.569 487.441 L 215.786 487.441 L 215.786 483.658 Z  M 227.134 483.658 L 230.917 483.658 L 230.917 487.441 L 227.134 487.441 L 227.134 483.658 Z  M 230.917 483.658 L 234.7 483.658 L 234.7 487.441 L 230.917 487.441 L 230.917 483.658 Z  M 238.482 483.658 L 242.265 483.658 L 242.265 487.441 L 238.482 487.441 L 238.482 483.658 Z  M 246.048 483.658 L 249.831 483.658 L 249.831 487.441 L 246.048 487.441 L 246.048 483.658 Z  M 249.831 483.658 L 253.613 483.658 L 253.613 487.441 L 249.831 487.441 L 249.831 483.658 Z  M 253.613 483.658 L 257.396 483.658 L 257.396 487.441 L 253.613 487.441 L 253.613 483.658 Z  M 155.262 487.441 L 159.045 487.441 L 159.045 491.224 L 155.262 491.224 L 155.262 487.441 Z  M 177.959 487.441 L 181.741 487.441 L 181.741 491.224 L 177.959 491.224 L 177.959 487.441 Z  M 193.09 487.441 L 196.872 487.441 L 196.872 491.224 L 193.09 491.224 L 193.09 487.441 Z  M 196.872 487.441 L 200.655 487.441 L 200.655 491.224 L 196.872 491.224 L 196.872 487.441 Z  M 208.221 487.441 L 212.003 487.441 L 212.003 491.224 L 208.221 491.224 L 208.221 487.441 Z  M 212.003 487.441 L 215.786 487.441 L 215.786 491.224 L 212.003 491.224 L 212.003 487.441 Z  M 227.134 487.441 L 230.917 487.441 L 230.917 491.224 L 227.134 491.224 L 227.134 487.441 Z  M 230.917 487.441 L 234.7 487.441 L 234.7 491.224 L 230.917 491.224 L 230.917 487.441 Z  M 246.048 487.441 L 249.831 487.441 L 249.831 491.224 L 246.048 491.224 L 246.048 487.441 Z  M 249.831 487.441 L 253.613 487.441 L 253.613 491.224 L 249.831 491.224 L 249.831 487.441 Z  M 257.396 487.441 L 261.179 487.441 L 261.179 491.224 L 257.396 491.224 L 257.396 487.441 Z  M 261.179 487.441 L 264.961 487.441 L 264.961 491.224 L 261.179 491.224 L 261.179 487.441 Z  M 155.262 491.224 L 159.045 491.224 L 159.045 495.006 L 155.262 495.006 L 155.262 491.224 Z  M 162.828 491.224 L 166.61 491.224 L 166.61 495.006 L 162.828 495.006 L 162.828 491.224 Z  M 166.61 491.224 L 170.393 491.224 L 170.393 495.006 L 166.61 495.006 L 166.61 491.224 Z  M 170.393 491.224 L 174.176 491.224 L 174.176 495.006 L 170.393 495.006 L 170.393 491.224 Z  M 177.959 491.224 L 181.741 491.224 L 181.741 495.006 L 177.959 495.006 L 177.959 491.224 Z  M 185.524 491.224 L 189.307 491.224 L 189.307 495.006 L 185.524 495.006 L 185.524 491.224 Z  M 189.307 491.224 L 193.09 491.224 L 193.09 495.006 L 189.307 495.006 L 189.307 491.224 Z  M 196.872 491.224 L 200.655 491.224 L 200.655 495.006 L 196.872 495.006 L 196.872 491.224 Z  M 212.003 491.224 L 215.786 491.224 L 215.786 495.006 L 212.003 495.006 L 212.003 491.224 Z  M 219.569 491.224 L 223.351 491.224 L 223.351 495.006 L 219.569 495.006 L 219.569 491.224 Z  M 223.351 491.224 L 227.134 491.224 L 227.134 495.006 L 223.351 495.006 L 223.351 491.224 Z  M 230.917 491.224 L 234.7 491.224 L 234.7 495.006 L 230.917 495.006 L 230.917 491.224 Z  M 234.7 491.224 L 238.482 491.224 L 238.482 495.006 L 234.7 495.006 L 234.7 491.224 Z  M 238.482 491.224 L 242.265 491.224 L 242.265 495.006 L 238.482 495.006 L 238.482 491.224 Z  M 242.265 491.224 L 246.048 491.224 L 246.048 495.006 L 242.265 495.006 L 242.265 491.224 Z  M 246.048 491.224 L 249.831 491.224 L 249.831 495.006 L 246.048 495.006 L 246.048 491.224 Z  M 249.831 491.224 L 253.613 491.224 L 253.613 495.006 L 249.831 495.006 L 249.831 491.224 Z  M 253.613 491.224 L 257.396 491.224 L 257.396 495.006 L 253.613 495.006 L 253.613 491.224 Z  M 155.262 495.006 L 159.045 495.006 L 159.045 498.789 L 155.262 498.789 L 155.262 495.006 Z  M 162.828 495.006 L 166.61 495.006 L 166.61 498.789 L 162.828 498.789 L 162.828 495.006 Z  M 166.61 495.006 L 170.393 495.006 L 170.393 498.789 L 166.61 498.789 L 166.61 495.006 Z  M 170.393 495.006 L 174.176 495.006 L 174.176 498.789 L 170.393 498.789 L 170.393 495.006 Z  M 177.959 495.006 L 181.741 495.006 L 181.741 498.789 L 177.959 498.789 L 177.959 495.006 Z  M 185.524 495.006 L 189.307 495.006 L 189.307 498.789 L 185.524 498.789 L 185.524 495.006 Z  M 189.307 495.006 L 193.09 495.006 L 193.09 498.789 L 189.307 498.789 L 189.307 495.006 Z  M 193.09 495.006 L 196.872 495.006 L 196.872 498.789 L 193.09 498.789 L 193.09 495.006 Z  M 200.655 495.006 L 204.438 495.006 L 204.438 498.789 L 200.655 498.789 L 200.655 495.006 Z  M 204.438 495.006 L 208.221 495.006 L 208.221 498.789 L 204.438 498.789 L 204.438 495.006 Z  M 208.221 495.006 L 212.003 495.006 L 212.003 498.789 L 208.221 498.789 L 208.221 495.006 Z  M 215.786 495.006 L 219.569 495.006 L 219.569 498.789 L 215.786 498.789 L 215.786 495.006 Z  M 219.569 495.006 L 223.351 495.006 L 223.351 498.789 L 219.569 498.789 L 219.569 495.006 Z  M 223.351 495.006 L 227.134 495.006 L 227.134 498.789 L 223.351 498.789 L 223.351 495.006 Z  M 227.134 495.006 L 230.917 495.006 L 230.917 498.789 L 227.134 498.789 L 227.134 495.006 Z  M 230.917 495.006 L 234.7 495.006 L 234.7 498.789 L 230.917 498.789 L 230.917 495.006 Z  M 242.265 495.006 L 246.048 495.006 L 246.048 498.789 L 242.265 498.789 L 242.265 495.006 Z  M 249.831 495.006 L 253.613 495.006 L 253.613 498.789 L 249.831 498.789 L 249.831 495.006 Z  M 257.396 495.006 L 261.179 495.006 L 261.179 498.789 L 257.396 498.789 L 257.396 495.006 Z  M 261.179 495.006 L 264.961 495.006 L 264.961 498.789 L 261.179 498.789 L 261.179 495.006 Z  M 155.262 498.789 L 159.045 498.789 L 159.045 502.572 L 155.262 502.572 L 155.262 498.789 Z  M 162.828 498.789 L 166.61 498.789 L 166.61 502.572 L 162.828 502.572 L 162.828 498.789 Z  M 166.61 498.789 L 170.393 498.789 L 170.393 502.572 L 166.61 502.572 L 166.61 498.789 Z  M 170.393 498.789 L 174.176 498.789 L 174.176 502.572 L 170.393 502.572 L 170.393 498.789 Z  M 177.959 498.789 L 181.741 498.789 L 181.741 502.572 L 177.959 502.572 L 177.959 498.789 Z  M 185.524 498.789 L 189.307 498.789 L 189.307 502.572 L 185.524 502.572 L 185.524 498.789 Z  M 189.307 498.789 L 193.09 498.789 L 193.09 502.572 L 189.307 502.572 L 189.307 498.789 Z  M 193.09 498.789 L 196.872 498.789 L 196.872 502.572 L 193.09 502.572 L 193.09 498.789 Z  M 204.438 498.789 L 208.221 498.789 L 208.221 502.572 L 204.438 502.572 L 204.438 498.789 Z  M 208.221 498.789 L 212.003 498.789 L 212.003 502.572 L 208.221 502.572 L 208.221 498.789 Z  M 212.003 498.789 L 215.786 498.789 L 215.786 502.572 L 212.003 502.572 L 212.003 498.789 Z  M 215.786 498.789 L 219.569 498.789 L 219.569 502.572 L 215.786 502.572 L 215.786 498.789 Z  M 219.569 498.789 L 223.351 498.789 L 223.351 502.572 L 219.569 502.572 L 219.569 498.789 Z  M 234.7 498.789 L 238.482 498.789 L 238.482 502.572 L 234.7 502.572 L 234.7 498.789 Z  M 238.482 498.789 L 242.265 498.789 L 242.265 502.572 L 238.482 502.572 L 238.482 498.789 Z  M 242.265 498.789 L 246.048 498.789 L 246.048 502.572 L 242.265 502.572 L 242.265 498.789 Z  M 246.048 498.789 L 249.831 498.789 L 249.831 502.572 L 246.048 502.572 L 246.048 498.789 Z  M 249.831 498.789 L 253.613 498.789 L 253.613 502.572 L 249.831 502.572 L 249.831 498.789 Z  M 253.613 498.789 L 257.396 498.789 L 257.396 502.572 L 253.613 502.572 L 253.613 498.789 Z  M 257.396 498.789 L 261.179 498.789 L 261.179 502.572 L 257.396 502.572 L 257.396 498.789 Z  M 155.262 502.572 L 159.045 502.572 L 159.045 506.355 L 155.262 506.355 L 155.262 502.572 Z  M 177.959 502.572 L 181.741 502.572 L 181.741 506.355 L 177.959 506.355 L 177.959 502.572 Z  M 185.524 502.572 L 189.307 502.572 L 189.307 506.355 L 185.524 506.355 L 185.524 502.572 Z  M 193.09 502.572 L 196.872 502.572 L 196.872 506.355 L 193.09 506.355 L 193.09 502.572 Z  M 200.655 502.572 L 204.438 502.572 L 204.438 506.355 L 200.655 506.355 L 200.655 502.572 Z  M 204.438 502.572 L 208.221 502.572 L 208.221 506.355 L 204.438 506.355 L 204.438 502.572 Z  M 212.003 502.572 L 215.786 502.572 L 215.786 506.355 L 212.003 506.355 L 212.003 502.572 Z  M 215.786 502.572 L 219.569 502.572 L 219.569 506.355 L 215.786 506.355 L 215.786 502.572 Z  M 227.134 502.572 L 230.917 502.572 L 230.917 506.355 L 227.134 506.355 L 227.134 502.572 Z  M 230.917 502.572 L 234.7 502.572 L 234.7 506.355 L 230.917 506.355 L 230.917 502.572 Z  M 234.7 502.572 L 238.482 502.572 L 238.482 506.355 L 234.7 506.355 L 234.7 502.572 Z  M 238.482 502.572 L 242.265 502.572 L 242.265 506.355 L 238.482 506.355 L 238.482 502.572 Z  M 242.265 502.572 L 246.048 502.572 L 246.048 506.355 L 242.265 506.355 L 242.265 502.572 Z  M 249.831 502.572 L 253.613 502.572 L 253.613 506.355 L 249.831 506.355 L 249.831 502.572 Z  M 257.396 502.572 L 261.179 502.572 L 261.179 506.355 L 257.396 506.355 L 257.396 502.572 Z  M 155.262 506.355 L 159.045 506.355 L 159.045 510.137 L 155.262 510.137 L 155.262 506.355 Z  M 159.045 506.355 L 162.828 506.355 L 162.828 510.137 L 159.045 510.137 L 159.045 506.355 Z  M 162.828 506.355 L 166.61 506.355 L 166.61 510.137 L 162.828 510.137 L 162.828 506.355 Z  M 166.61 506.355 L 170.393 506.355 L 170.393 510.137 L 166.61 510.137 L 166.61 506.355 Z  M 170.393 506.355 L 174.176 506.355 L 174.176 510.137 L 170.393 510.137 L 170.393 506.355 Z  M 174.176 506.355 L 177.959 506.355 L 177.959 510.137 L 174.176 510.137 L 174.176 506.355 Z  M 177.959 506.355 L 181.741 506.355 L 181.741 510.137 L 177.959 510.137 L 177.959 506.355 Z  M 185.524 506.355 L 189.307 506.355 L 189.307 510.137 L 185.524 510.137 L 185.524 506.355 Z  M 189.307 506.355 L 193.09 506.355 L 193.09 510.137 L 189.307 510.137 L 189.307 506.355 Z  M 200.655 506.355 L 204.438 506.355 L 204.438 510.137 L 200.655 510.137 L 200.655 506.355 Z  M 208.221 506.355 L 212.003 506.355 L 212.003 510.137 L 208.221 510.137 L 208.221 506.355 Z  M 219.569 506.355 L 223.351 506.355 L 223.351 510.137 L 219.569 510.137 L 219.569 506.355 Z  M 227.134 506.355 L 230.917 506.355 L 230.917 510.137 L 227.134 510.137 L 227.134 506.355 Z  M 242.265 506.355 L 246.048 506.355 L 246.048 510.137 L 242.265 510.137 L 242.265 506.355 Z  M 246.048 506.355 L 249.831 506.355 L 249.831 510.137 L 246.048 510.137 L 246.048 506.355 Z  M 249.831 506.355 L 253.613 506.355 L 253.613 510.137 L 249.831 510.137 L 249.831 506.355 Z  M 253.613 506.355 L 257.396 506.355 L 257.396 510.137 L 253.613 510.137 L 253.613 506.355 Z " fill="rgb(0,0,0)"/></g></g></g></svg>