<?xml version="1.0" standalone="no"?><!-- Generator: Gravit.io --><svg xmlns="http://www.w3.org/2000/svg" xmlns:xlink="http://www.w3.org/1999/xlink" style="isolation:isolate" viewBox="0 0 2383.937 3370.394" width="2383.937" height="3370.394"><defs><clipPath id="_clipPath_SH34hb8744LV5FgH0zscFrKwE0YmuIU0"><rect width="2383.937" height="3370.394"/></clipPath></defs><g clip-path="url(#_clipPath_SH34hb8744LV5FgH0zscFrKwE0YmuIU0)"><g id="Code for the future"><rect x="0" y="1754.777" width="2316.937" height="304" transform="matrix(1,0,0,1,0,0)" fill="rgb(57,151,211)"/><g id="M3-code_present"><g id="Layer_1-2"><path d=" M 1894.208 1889.11 L 1813.835 1877.888 L 1813.835 1867.621 L 1894.208 1856.399 L 1894.208 1889.11 L 1894.208 1889.11 Z " fill="rgb(241,243,244)"/><path d=" M 1879.677 1919.716 C 1878.486 1921.677 1876.36 1922.878 1874.066 1922.886 L 1867.782 1922.886 C 1867.189 1922.886 1866.621 1923.124 1866.205 1923.545 C 1865.788 1923.967 1865.558 1924.538 1865.566 1925.131 L 1865.566 1951.557 C 1865.566 1957.754 1860.542 1962.778 1854.344 1962.778 L 1834.426 1962.778 C 1831.047 1962.748 1828.174 1965.237 1827.721 1968.586 L 1823.233 2005.42 C 1823.104 2006.544 1822.148 2007.391 1821.017 2007.384 L 1820.764 2007.384 C 1819.53 2007.384 1744.655 2008.618 1744.795 2007.384 C 1743.577 2007.279 1742.666 2006.219 1742.747 2004.999 L 1745.973 1965.724 C 1746.306 1961.572 1745.582 1957.402 1743.869 1953.605 L 1718.312 1896.684 C 1715.809 1891.412 1714.406 1885.685 1714.188 1879.852 C 1714.188 1878.562 1714.188 1877.271 1714.188 1875.981 L 1714.497 1871.548 C 1718.614 1833.656 1751.402 1805.443 1789.484 1807.025 C 1822.237 1808.343 1849.858 1831.852 1856.392 1863.974 C 1856.835 1866.402 1857.599 1868.76 1858.665 1870.987 L 1879.957 1913.067 C 1881.065 1915.173 1880.958 1917.711 1879.677 1919.716 Z " fill="rgb(201,206,209)"/><clipPath id="_clipPath_u9IEvdpW3sLSBuBFwbwcnjP6EekJxezP"><rect x="1712.337" y="1806.66" width="81.215" height="221.343" transform="matrix(1,0,0,1,0,0)" fill="rgb(255,255,255)"/></clipPath><g clip-path="url(#_clipPath_u9IEvdpW3sLSBuBFwbwcnjP6EekJxezP)"><g id="Group"><path d=" M 1877.965 1919.604 C 1876.769 1921.564 1874.65 1922.772 1872.355 1922.802 L 1866.071 1922.802 C 1864.842 1922.802 1863.842 1923.79 1863.826 1925.018 L 1863.826 1951.473 C 1863.826 1957.67 1858.802 1962.694 1852.605 1962.694 L 1832.743 1962.694 C 1829.362 1962.71 1826.517 1965.231 1826.094 1968.586 L 1821.634 2005.308 C 1821.505 2006.432 1820.549 2007.279 1819.418 2007.272 L 1819.137 2007.272 C 1817.931 2007.272 1743.028 2008.506 1743.196 2007.272 C 1741.966 2007.167 1741.051 2006.089 1741.148 2004.859 L 1744.346 1965.584 C 1744.695 1961.431 1743.97 1957.257 1742.242 1953.465 L 1716.461 1896.6 C 1713.976 1891.321 1712.574 1885.598 1712.337 1879.768 C 1712.337 1878.449 1712.337 1877.187 1712.337 1875.896 L 1712.702 1871.324 C 1716.845 1833.434 1749.634 1805.232 1787.717 1806.8 C 1820.549 1808.13 1848.206 1831.754 1854.653 1863.974 C 1855.1 1866.395 1855.874 1868.745 1856.953 1870.959 L 1878.246 1913.039 C 1879.316 1915.124 1879.209 1917.618 1877.965 1919.604 Z " fill="rgb(241,243,244)"/></g></g><rect x="1755.365" y="1850.612" width="37.872" height="5.442" transform="matrix(0.287,-0.958,0.958,0.287,-510.727,3020.223)" fill="rgb(201,206,209)" vector-effect="non-scaling-stroke" stroke-width="1.076" stroke="rgb(201,206,209)" stroke-linejoin="miter" stroke-linecap="butt" stroke-miterlimit="10"/><path d=" M 1753.52 1836.032 L 1738.988 1851.462 L 1737.248 1853.313 L 1738.988 1855.165 L 1753.52 1870.594 L 1757.475 1866.863 L 1744.711 1853.313 L 1757.475 1839.735 L 1753.52 1836.032 L 1753.52 1836.032 L 1753.52 1836.032 Z " fill="rgb(201,206,209)" vector-effect="non-scaling-stroke" stroke-width="1.076" stroke="rgb(201,206,209)" stroke-linejoin="miter" stroke-linecap="butt" stroke-miterlimit="10"/><path d=" M 1795.067 1836.032 L 1791.083 1839.735 L 1803.848 1853.313 L 1791.083 1866.863 L 1795.067 1870.594 L 1809.571 1855.165 L 1811.338 1853.313 L 1809.571 1851.462 L 1795.067 1836.032 L 1795.067 1836.032 Z " fill="rgb(255,255,255)" vector-effect="non-scaling-stroke" stroke-width="1.076" stroke="rgb(255,255,255)" stroke-linejoin="miter" stroke-linecap="butt" stroke-miterlimit="10"/></g></g><g id="M3-code_future"><g id="Layer_1-2"><path d=" M 2246.619 1912.271 L 2100.17 1881.088 L 2100.17 1865.042 L 2246.619 1833.859 L 2246.619 1912.271 L 2246.619 1912.271 Z " fill="rgb(246,142,73)"/><path d=" M 2140.227 1919.812 C 2138.969 1921.897 2136.708 1923.168 2134.273 1923.157 L 2127.782 1923.157 C 2127.165 1923.157 2126.574 1923.402 2126.138 1923.838 C 2125.702 1924.274 2125.457 1924.865 2125.457 1925.482 L 2125.457 1953.122 C 2125.441 1959.535 2120.247 1964.729 2113.834 1964.745 L 2092.941 1964.745 C 2089.405 1964.747 2086.425 1967.386 2085.996 1970.897 L 2081.375 2009.507 C 2081.232 2010.684 2080.236 2011.571 2079.05 2011.577 L 2078.767 2011.577 C 2077.491 2011.407 1999.39 2012.853 1999.39 2011.577 C 1998.775 2011.534 1998.204 2011.245 1997.804 2010.776 C 1997.404 2010.307 1997.209 2009.696 1997.264 2009.082 L 2000.609 1967.948 C 2000.975 1963.607 2000.224 1959.245 1998.426 1955.276 L 1971.495 1895.772 C 1968.874 1890.218 1967.399 1884.192 1967.158 1878.055 C 1967.158 1876.694 1967.158 1875.361 1967.158 1874.029 L 1967.47 1869.38 C 1971.738 1829.695 2006.09 1800.144 2045.967 1801.853 C 2080.281 1803.272 2109.167 1827.988 2115.875 1861.669 C 2116.338 1864.206 2117.149 1866.667 2118.285 1868.983 L 2140.51 1913.122 C 2141.573 1915.252 2141.466 1917.779 2140.227 1919.812 Z " fill="rgb(238,110,49)"/><clipPath id="_clipPath_sAigQhhnDW9rvka4CyggTLNEv66eIeiv"><rect x="1965.287" y="1801.683" width="84.876" height="231.297" transform="matrix(1,0,0,1,0,0)" fill="rgb(255,255,255)"/></clipPath><g clip-path="url(#_clipPath_sAigQhhnDW9rvka4CyggTLNEv66eIeiv)"><g id="Group"><path d=" M 2138.299 1919.727 C 2137.027 1921.793 2134.772 1923.049 2132.346 1923.044 L 2125.911 1923.044 C 2125.294 1923.044 2124.703 1923.289 2124.267 1923.725 C 2123.831 1924.161 2123.586 1924.752 2123.586 1925.368 L 2123.586 1953.008 C 2123.586 1959.443 2118.369 1964.66 2111.935 1964.66 L 2091.098 1964.66 C 2087.576 1964.673 2084.607 1967.29 2084.153 1970.783 L 2079.475 2009.281 C 2079.333 2010.442 2078.349 2011.316 2077.179 2011.322 L 2076.896 2011.322 C 2075.62 2011.322 1997.377 2012.626 1997.519 2011.322 C 1996.241 2011.202 1995.295 2010.079 1995.393 2008.799 L 1998.738 1967.665 C 1999.104 1963.324 1998.353 1958.961 1996.555 1954.993 L 1969.596 1895.659 C 1966.994 1890.103 1965.556 1884.073 1965.372 1877.941 C 1965.372 1876.609 1965.372 1875.248 1965.372 1873.916 L 1965.684 1869.266 C 1970.03 1829.669 2004.263 1800.177 2044.068 1801.74 C 2078.401 1803.149 2107.305 1827.882 2114.004 1861.584 C 2114.471 1864.111 2115.282 1866.562 2116.414 1868.87 L 2138.639 1912.895 C 2139.727 1915.075 2139.598 1917.666 2138.299 1919.727 Z " fill="rgb(246,142,73)"/></g></g><path d=" M 2033.409 1833.944 L 2022.069 1871.874 L 2027.455 1873.434 L 2038.795 1835.531 L 2033.409 1833.944 Z  M 2008.717 1835.673 L 1993.55 1851.775 L 1991.708 1853.731 L 1993.55 1855.659 L 2008.717 1871.761 L 2012.884 1867.906 L 1999.532 1853.731 L 2012.884 1839.557 L 2008.717 1835.673 Z  M 2052.147 1835.673 L 2048.008 1839.557 L 2061.332 1853.731 L 2048.008 1867.906 L 2052.147 1871.761 L 2067.427 1855.659 L 2069.27 1853.731 L 2067.427 1851.775 L 2052.147 1835.673 Z " fill="rgb(255,255,255)" vector-effect="non-scaling-stroke" stroke-width="1.117" stroke="rgb(255,255,255)" stroke-linejoin="miter" stroke-linecap="butt" stroke-miterlimit="10"/></g></g><rect x="-0.665" y="1688.777" width="1585.985" height="108" transform="matrix(1,0,0,1,0,0)" fill="rgb(235,235,235)"/><g transform="matrix(1,0,0,1,71.875,1694.694)"><text transform="matrix(1,0,0,1,0,75.445)" style="font-family:&quot;Roboto Slab&quot;;font-weight:700;font-size:72px;font-style:normal;fill:#5f5f60;stroke:none;">Code for the future</text></g><g transform="matrix(1,0,0,1,69,1809.777)"><text transform="matrix(1,0,0,1,0,44.531)" style="font-family:&quot;Roboto&quot;;font-weight:400;font-size:48px;font-style:normal;fill:#ffffff;stroke:none;">Follow </text><text transform="matrix(1,0,0,1,164.599,44.531)" style="font-family:&quot;Roboto&quot;;font-weight:400;font-size:48px;font-style:normal;fill:#ffffff;stroke:none;">good </text><text transform="matrix(1,0,0,1,297.299,44.531)" style="font-family:&quot;Roboto&quot;;font-weight:400;font-size:48px;font-style:normal;fill:#ffffff;stroke:none;">practices </text><text transform="matrix(1,0,0,1,518.288,44.531)" style="font-family:&quot;Roboto&quot;;font-weight:400;font-size:48px;font-style:normal;fill:#ffffff;stroke:none;">from </text><text transform="matrix(1,0,0,1,644.589,44.531)" style="font-family:&quot;Roboto&quot;;font-weight:400;font-size:48px;font-style:normal;fill:#ffffff;stroke:none;">the </text><text transform="matrix(1,0,0,1,736.086,44.531)" style="font-family:&quot;Roboto&quot;;font-weight:400;font-size:48px;font-style:normal;fill:#ffffff;stroke:none;">start </text><text transform="matrix(1,0,0,1,858.497,44.531)" style="font-family:&quot;Roboto&quot;;font-weight:400;font-size:48px;font-style:normal;fill:#ffffff;stroke:none;">of </text><text transform="matrix(1,0,0,1,926.487,44.531)" style="font-family:&quot;Roboto&quot;;font-weight:400;font-size:48px;font-style:normal;fill:#ffffff;stroke:none;">the </text><text transform="matrix(1,0,0,1,1017.984,44.531)" style="font-family:&quot;Roboto&quot;;font-weight:400;font-size:48px;font-style:normal;fill:#ffffff;stroke:none;">project; </text><text transform="matrix(1,0,0,1,1200.324,44.531)" style="font-family:&quot;Roboto&quot;;font-weight:400;font-size:48px;font-style:normal;fill:#ffffff;stroke:none;">don’t </text><text transform="matrix(1,0,0,1,1330.47,44.531)" style="font-family:&quot;Roboto&quot;;font-weight:400;font-size:48px;font-style:normal;fill:#ffffff;stroke:none;">build </text><text transform="matrix(1,0,0,1,1458.178,44.531)" style="font-family:&quot;Roboto&quot;;font-weight:400;font-size:48px;font-style:normal;fill:#ffffff;stroke:none;">up </text><text transform="matrix(1,0,0,1,0,100.781)" style="font-family:&quot;Roboto&quot;;font-weight:400;font-size:48px;font-style:normal;fill:#ffffff;stroke:none;">technical </text><text transform="matrix(1,0,0,1,225.55,100.781)" style="font-family:&quot;Roboto&quot;;font-weight:400;font-size:48px;font-style:normal;fill:#ffffff;stroke:none;">debts </text><text transform="matrix(1,0,0,1,377.271,100.781)" style="font-family:&quot;Roboto&quot;;font-weight:400;font-size:48px;font-style:normal;fill:#ffffff;stroke:none;">that </text><text transform="matrix(1,0,0,1,493.04,100.781)" style="font-family:&quot;Roboto&quot;;font-weight:400;font-size:48px;font-style:normal;fill:#ffffff;stroke:none;">are </text><text transform="matrix(1,0,0,1,592.684,100.781)" style="font-family:&quot;Roboto&quot;;font-weight:400;font-size:48px;font-style:normal;fill:#ffffff;stroke:none;">hard </text><text transform="matrix(1,0,0,1,720.405,100.781)" style="font-family:&quot;Roboto&quot;;font-weight:400;font-size:48px;font-style:normal;fill:#ffffff;stroke:none;">to </text><text transform="matrix(1,0,0,1,795.322,100.781)" style="font-family:&quot;Roboto&quot;;font-weight:400;font-size:48px;font-style:normal;fill:#ffffff;stroke:none;">fix </text><text transform="matrix(1,0,0,1,879.286,100.781)" style="font-family:&quot;Roboto&quot;;font-weight:400;font-size:48px;font-style:normal;fill:#ffffff;stroke:none;">later. </text><text transform="matrix(1,0,0,1,1018.89,100.781)" style="font-family:&quot;Roboto&quot;;font-weight:400;font-size:48px;font-style:normal;fill:#ffffff;stroke:none;">This </text><text transform="matrix(1,0,0,1,1142.229,100.781)" style="font-family:&quot;Roboto&quot;;font-weight:400;font-size:48px;font-style:normal;fill:#ffffff;stroke:none;">generally </text><text transform="matrix(1,0,0,1,1366.724,100.781)" style="font-family:&quot;Roboto&quot;;font-weight:400;font-size:48px;font-style:normal;fill:#ffffff;stroke:none;">means </text><text transform="matrix(1,0,0,1,0,157.031)" style="font-family:&quot;Roboto&quot;;font-weight:400;font-size:48px;font-style:normal;fill:#ffffff;stroke:none;">automated </text><text transform="matrix(1,0,0,1,249.251,157.031)" style="font-family:&quot;Roboto&quot;;font-weight:400;font-size:48px;font-style:normal;fill:#ffffff;stroke:none;">testing, </text><text transform="matrix(1,0,0,1,422.54,157.031)" style="font-family:&quot;Roboto&quot;;font-weight:400;font-size:48px;font-style:normal;fill:#ffffff;stroke:none;">writing </text><text transform="matrix(1,0,0,1,584.51,157.031)" style="font-family:&quot;Roboto&quot;;font-weight:400;font-size:48px;font-style:normal;fill:#ffffff;stroke:none;">documentation, </text><text transform="matrix(1,0,0,1,934.19,157.031)" style="font-family:&quot;Roboto&quot;;font-weight:400;font-size:48px;font-style:normal;fill:#ffffff;stroke:none;">instructions </text><text transform="matrix(1,0,0,1,1203.785,157.031)" style="font-family:&quot;Roboto&quot;;font-weight:400;font-size:48px;font-style:normal;fill:#ffffff;stroke:none;">on </text><text transform="matrix(1,0,0,1,1274.911,157.031)" style="font-family:&quot;Roboto&quot;;font-weight:400;font-size:48px;font-style:normal;fill:#ffffff;stroke:none;">how </text><text transform="matrix(1,0,0,1,1382.06,157.031)" style="font-family:&quot;Roboto&quot;;font-weight:400;font-size:48px;font-style:normal;fill:#ffffff;stroke:none;">to </text><text transform="matrix(1,0,0,1,1442.381,157.031)" style="font-family:&quot;Roboto&quot;;font-weight:400;font-size:48px;font-style:normal;fill:#ffffff;stroke:none;">run </text><text transform="matrix(1,0,0,1,0,213.281)" style="font-family:&quot;Roboto&quot;;font-weight:400;font-size:48px;font-style:normal;fill:#ffffff;stroke:none;">and </text><text transform="matrix(1,0,0,1,91.547,213.281)" style="font-family:&quot;Roboto&quot;;font-weight:400;font-size:48px;font-style:normal;fill:#ffffff;stroke:none;">maintain </text><text transform="matrix(1,0,0,1,289.664,213.281)" style="font-family:&quot;Roboto&quot;;font-weight:400;font-size:48px;font-style:normal;fill:#ffffff;stroke:none;">your </text><text transform="matrix(1,0,0,1,394.336,213.281)" style="font-family:&quot;Roboto&quot;;font-weight:400;font-size:48px;font-style:normal;fill:#ffffff;stroke:none;">code, </text><text transform="matrix(1,0,0,1,520.641,213.281)" style="font-family:&quot;Roboto&quot;;font-weight:400;font-size:48px;font-style:normal;fill:#ffffff;stroke:none;">and </text><text transform="matrix(1,0,0,1,612.188,213.281)" style="font-family:&quot;Roboto&quot;;font-weight:400;font-size:48px;font-style:normal;fill:#ffffff;stroke:none;">following </text><text transform="matrix(1,0,0,1,819.914,213.281)" style="font-family:&quot;Roboto&quot;;font-weight:400;font-size:48px;font-style:normal;fill:#ffffff;stroke:none;">modern </text><text transform="matrix(1,0,0,1,996.469,213.281)" style="font-family:&quot;Roboto&quot;;font-weight:400;font-size:48px;font-style:normal;fill:#ffffff;stroke:none;">development </text><text transform="matrix(1,0,0,1,1285.148,213.281)" style="font-family:&quot;Roboto&quot;;font-weight:400;font-size:48px;font-style:normal;fill:#ffffff;stroke:none;">practices.</text></g></g><g id="Code deserves Credit"><rect x="0" y="2766.549" width="2316.937" height="249.451" transform="matrix(1,0,0,1,0,0)" fill="rgb(57,151,211)"/><rect x="0" y="2700.549" width="1585.32" height="108" transform="matrix(1,0,0,1,0,0)" fill="rgb(235,235,235)"/><g transform="matrix(1,0,0,1,73.875,2706.466)"><text transform="matrix(1,0,0,1,0,75.445)" style="font-family:&quot;Roboto Slab&quot;;font-weight:700;font-size:72px;font-style:normal;fill:#5f5f60;stroke:none;">Code deserves credit</text></g><g transform="matrix(1,0,0,1,71,2845.549)"><text transform="matrix(1,0,0,1,0,44.531)" style="font-family:&quot;Roboto&quot;;font-weight:400;font-size:48px;font-style:normal;fill:#ffffff;stroke:none;">Software </text><text transform="matrix(1,0,0,1,207.6,44.531)" style="font-family:&quot;Roboto&quot;;font-weight:400;font-size:48px;font-style:normal;fill:#ffffff;stroke:none;">should </text><text transform="matrix(1,0,0,1,366.894,44.531)" style="font-family:&quot;Roboto&quot;;font-weight:400;font-size:48px;font-style:normal;fill:#ffffff;stroke:none;">be </text><text transform="matrix(1,0,0,1,434.807,44.531)" style="font-family:&quot;Roboto&quot;;font-weight:400;font-size:48px;font-style:normal;fill:#ffffff;stroke:none;">cited </text><text transform="matrix(1,0,0,1,555.312,44.531)" style="font-family:&quot;Roboto&quot;;font-weight:400;font-size:48px;font-style:normal;fill:#ffffff;stroke:none;">and </text><text transform="matrix(1,0,0,1,650.529,44.531)" style="font-family:&quot;Roboto&quot;;font-weight:400;font-size:48px;font-style:normal;fill:#ffffff;stroke:none;">acknowledged </text><text transform="matrix(1,0,0,1,975.152,44.531)" style="font-family:&quot;Roboto&quot;;font-weight:400;font-size:48px;font-style:normal;fill:#ffffff;stroke:none;">as </text><text transform="matrix(1,0,0,1,1041.564,44.531)" style="font-family:&quot;Roboto&quot;;font-weight:400;font-size:48px;font-style:normal;fill:#ffffff;stroke:none;">scientific </text><text transform="matrix(1,0,0,1,1251.32,44.531)" style="font-family:&quot;Roboto&quot;;font-weight:400;font-size:48px;font-style:normal;fill:#ffffff;stroke:none;">output. </text><text transform="matrix(1,0,0,1,1418.092,44.531)" style="font-family:&quot;Roboto&quot;;font-weight:400;font-size:48px;font-style:normal;fill:#ffffff;stroke:none;">This </text><text transform="matrix(1,0,0,1,0,100.781)" style="font-family:&quot;Roboto&quot;;font-weight:400;font-size:48px;font-style:normal;fill:#ffffff;stroke:none;">means </text><text transform="matrix(1,0,0,1,156.727,100.781)" style="font-family:&quot;Roboto&quot;;font-weight:400;font-size:48px;font-style:normal;fill:#ffffff;stroke:none;">you </text><text transform="matrix(1,0,0,1,245.156,100.781)" style="font-family:&quot;Roboto&quot;;font-weight:400;font-size:48px;font-style:normal;fill:#ffffff;stroke:none;">should </text><text transform="matrix(1,0,0,1,400.781,100.781)" style="font-family:&quot;Roboto&quot;;font-weight:400;font-size:48px;font-style:normal;fill:#ffffff;stroke:none;">cite </text><text transform="matrix(1,0,0,1,490.547,100.781)" style="font-family:&quot;Roboto&quot;;font-weight:400;font-size:48px;font-style:normal;fill:#ffffff;stroke:none;">your </text><text transform="matrix(1,0,0,1,595.219,100.781)" style="font-family:&quot;Roboto&quot;;font-weight:400;font-size:48px;font-style:normal;fill:#ffffff;stroke:none;">sources </text><text transform="matrix(1,0,0,1,777.234,100.781)" style="font-family:&quot;Roboto&quot;;font-weight:400;font-size:48px;font-style:normal;fill:#ffffff;stroke:none;">as </text><text transform="matrix(1,0,0,1,839.977,100.781)" style="font-family:&quot;Roboto&quot;;font-weight:400;font-size:48px;font-style:normal;fill:#ffffff;stroke:none;">well </text><text transform="matrix(1,0,0,1,936.656,100.781)" style="font-family:&quot;Roboto&quot;;font-weight:400;font-size:48px;font-style:normal;fill:#ffffff;stroke:none;">as </text><text transform="matrix(1,0,0,1,999.398,100.781)" style="font-family:&quot;Roboto&quot;;font-weight:400;font-size:48px;font-style:normal;fill:#ffffff;stroke:none;">ask </text><text transform="matrix(1,0,0,1,1086.469,100.781)" style="font-family:&quot;Roboto&quot;;font-weight:400;font-size:48px;font-style:normal;fill:#ffffff;stroke:none;">to </text><text transform="matrix(1,0,0,1,1141.406,100.781)" style="font-family:&quot;Roboto&quot;;font-weight:400;font-size:48px;font-style:normal;fill:#ffffff;stroke:none;">be </text><text transform="matrix(1,0,0,1,1205.648,100.781)" style="font-family:&quot;Roboto&quot;;font-weight:400;font-size:48px;font-style:normal;fill:#ffffff;stroke:none;">cited </text><text transform="matrix(1,0,0,1,1322.484,100.781)" style="font-family:&quot;Roboto&quot;;font-weight:400;font-size:48px;font-style:normal;fill:#ffffff;stroke:none;">yourself.</text></g><g id="M5-credit"><g id="Layer_1-2"><path d=" M 2180.741 2952.225 L 2158.277 2976.935 L 2158.277 2952.225 L 2032.481 2952.225 C 2017.593 2952.225 2005.524 2940.156 2005.524 2925.269 L 2005.524 2847.387 C 2005.524 2832.5 2017.593 2820.431 2032.481 2820.431 L 2180.741 2820.431 C 2195.628 2820.431 2207.697 2832.5 2207.697 2847.387 L 2207.697 2925.269 C 2207.697 2940.156 2195.628 2952.225 2180.741 2952.225 Z " fill="rgb(238,110,49)"/><path d=" M 2045.263 2882.992 L 2029.246 2882.992 L 2029.246 2863.247 C 2029.246 2854.396 2036.524 2850.824 2044.431 2849.768 L 2044.431 2857.047 C 2041.084 2857.406 2038.321 2858.956 2038.321 2862.775 L 2038.321 2866.481 L 2045.263 2866.481 L 2045.263 2882.992 Z  M 2065.952 2882.992 L 2049.935 2882.992 L 2049.935 2863.247 C 2049.935 2854.396 2057.236 2850.824 2065.12 2849.768 L 2065.12 2857.047 C 2061.773 2857.406 2059.01 2858.956 2059.01 2862.775 L 2059.01 2866.481 L 2065.952 2866.481 L 2065.952 2882.992 Z " fill="rgb(255,255,255)"/><path d=" M 2078.936 2907.14 L 2092.661 2907.14 L 2092.661 2921.27 L 2078.936 2921.27 L 2078.936 2907.14 Z " fill="rgb(246,142,73)"/><path d=" M 2100.568 2907.14 L 2114.271 2907.14 L 2114.271 2921.27 L 2100.568 2921.27 L 2100.568 2907.14 Z " fill="rgb(246,142,73)"/><path d=" M 2122.201 2907.14 L 2135.814 2907.14 L 2135.814 2921.27 L 2122.111 2921.27 L 2122.201 2907.14 Z " fill="rgb(246,142,73)"/><path d=" M 2148.977 2849.746 L 2165.016 2849.746 L 2165.016 2869.469 C 2165.016 2878.32 2157.716 2881.914 2149.808 2882.947 L 2149.808 2875.691 C 2153.178 2875.332 2155.918 2873.782 2155.918 2869.963 L 2155.918 2866.257 L 2148.977 2866.257 L 2148.977 2849.746 Z  M 2169.666 2849.746 L 2185.705 2849.746 L 2185.705 2869.469 C 2185.705 2878.32 2178.405 2881.914 2170.497 2882.947 L 2170.497 2875.691 C 2173.867 2875.332 2176.607 2873.782 2176.607 2869.963 L 2176.607 2866.257 L 2169.666 2866.257 L 2169.666 2849.746 Z " fill="rgb(255,255,255)"/></g></g><g id="M5-no_credit"><g id="Layer_1-2"><path d=" M 1928.216 2952.225 L 1905.753 2976.935 L 1905.753 2952.225 L 1779.956 2952.225 C 1765.069 2952.225 1753 2940.156 1753 2925.269 L 1753 2847.387 C 1753 2832.5 1765.069 2820.431 1779.956 2820.431 L 1928.216 2820.431 C 1943.104 2820.431 1955.173 2832.5 1955.173 2847.387 L 1955.173 2925.269 C 1955.173 2940.156 1943.104 2952.225 1928.216 2952.225 Z " fill="rgb(201,206,209)"/><path d=" M 1826.411 2909.387 L 1840.136 2909.387 L 1840.136 2923.516 L 1826.411 2923.516 L 1826.411 2909.387 Z " fill="rgb(241,243,244)"/><path d=" M 1848.044 2909.387 L 1861.746 2909.387 L 1861.746 2923.516 L 1848.044 2923.516 L 1848.044 2909.387 Z " fill="rgb(241,243,244)"/><path d=" M 1869.676 2909.387 L 1883.289 2909.387 L 1883.289 2923.516 L 1869.586 2923.516 L 1869.676 2909.387 Z " fill="rgb(241,243,244)"/></g></g></g><g id="Availability over perfection"><rect x="67.188" y="2150.489" width="2316.812" height="512.829" transform="matrix(1,0,0,1,0,0)" fill="rgb(57,151,211)"/><rect x="599.417" y="2096.009" width="1784.583" height="108" transform="matrix(1,0,0,1,0,0)" fill="rgb(235,235,235)"/><g transform="matrix(1,0,0,1,614.063,2100.926)"><text transform="matrix(1,0,0,1,0,75.445)" style="font-family:&quot;Roboto Slab&quot;;font-weight:700;font-size:72px;font-style:normal;fill:#5f5f60;stroke:none;">Availability over perfection</text></g><g id="M4-alt-availability"><g id="Layer_1-2"><rect x="363.189" y="2285.365" width="177.998" height="224.926" transform="matrix(1,0,0,1,0,0)" fill="rgb(238,110,49)"/><line x1="393.851" y1="2356.294" x2="510.084" y2="2356.294" vector-effect="non-scaling-stroke" stroke-width="4.206" stroke="rgb(246,142,73)" stroke-linejoin="miter" stroke-linecap="butt" stroke-miterlimit="10"/><line x1="393.658" y1="2387.066" x2="509.892" y2="2387.066" vector-effect="non-scaling-stroke" stroke-width="4.206" stroke="rgb(246,142,73)" stroke-linejoin="miter" stroke-linecap="butt" stroke-miterlimit="10"/><line x1="393.851" y1="2328.908" x2="510.084" y2="2328.908" vector-effect="non-scaling-stroke" stroke-width="4.206" stroke="rgb(246,142,73)" stroke-linejoin="miter" stroke-linecap="butt" stroke-miterlimit="10"/><rect x="362.776" y="2533.989" width="177.998" height="28.377" transform="matrix(1,0,0,1,0,0)" fill="rgb(238,110,49)"/><rect x="362.776" y="2533.989" width="66.443" height="28.377" transform="matrix(1,0,0,1,0,0)" fill="rgb(246,142,73)"/><path d=" M 477.276 2472.968 L 492.414 2488.107 L 522.167 2458.353" fill="none" vector-effect="non-scaling-stroke" stroke-width="2.962" stroke="rgb(255,255,255)" stroke-linejoin="miter" stroke-linecap="butt" stroke-miterlimit="10"/></g></g><g id="M4-alt-perfection"><g id="Layer_1-2"><rect x="107.737" y="2285.365" width="178.41" height="225.448" transform="matrix(1,0,0,1,0,0)" fill="rgb(201,206,209)"/><line x1="138.277" y1="2359.852" x2="254.78" y2="2359.852" vector-effect="non-scaling-stroke" stroke-width="3.959" stroke="rgb(241,243,244)" stroke-linejoin="miter" stroke-linecap="butt" stroke-miterlimit="10"/><line x1="138.277" y1="2387.302" x2="254.78" y2="2387.302" vector-effect="non-scaling-stroke" stroke-width="3.959" stroke="rgb(241,243,244)" stroke-linejoin="miter" stroke-linecap="butt" stroke-miterlimit="10"/><line x1="138.277" y1="2334.968" x2="254.78" y2="2334.968" vector-effect="non-scaling-stroke" stroke-width="3.959" stroke="rgb(241,243,244)" stroke-linejoin="miter" stroke-linecap="butt" stroke-miterlimit="10"/><rect x="107.737" y="2534.566" width="178.41" height="28.443" transform="matrix(1,0,0,1,0,0)" fill="rgb(201,206,209)"/><rect x="107.737" y="2534.566" width="147.043" height="28.443" transform="matrix(1,0,0,1,0,0)" fill="rgb(241,243,244)"/><path d=" M 239.965 2462.727 L 231.358 2447.83 C 229.179 2444.056 229.18 2439.406 231.36 2435.633 C 233.539 2431.86 237.567 2429.537 241.924 2429.539 L 259.111 2429.539 C 263.469 2429.537 267.496 2431.86 269.676 2435.633 C 271.856 2439.406 271.856 2444.056 269.678 2447.83 L 261.098 2462.727 C 258.921 2466.506 254.892 2468.834 250.532 2468.834 C 246.171 2468.834 242.142 2466.506 239.965 2462.727 Z " fill="rgb(255,255,255)"/><path d=" M 239.965 2466.369 L 231.358 2481.238 C 229.179 2485.012 229.18 2489.662 231.36 2493.435 C 233.539 2497.208 237.567 2499.531 241.924 2499.529 L 259.111 2499.529 C 263.469 2499.531 267.496 2497.208 269.676 2493.435 C 271.856 2489.662 271.856 2485.012 269.678 2481.238 L 261.098 2466.369 C 258.921 2462.59 254.892 2460.261 250.532 2460.261 C 246.171 2460.261 242.142 2462.59 239.965 2466.369 Z " fill="rgb(255,255,255)"/><path d=" M 235.276 2481.818 C 233.561 2484.798 233.577 2488.469 235.316 2491.434 C 237.056 2494.4 240.252 2496.205 243.69 2496.163 L 257.346 2496.163 C 260.784 2496.205 263.98 2494.4 265.719 2491.434 C 267.459 2488.469 267.474 2484.798 265.76 2481.818" fill="rgb(201,206,209)"/><rect x="249.042" y="2462.286" width="2.979" height="21.132" transform="matrix(1,0,0,1,0,0)" fill="rgb(201,206,209)"/><path d=" M 261.208 2454.258 C 260.794 2454.947 260.243 2456.051 259.691 2457.016 L 256.711 2461.927 C 255.116 2463.555 252.921 2464.453 250.642 2464.41 C 248.959 2464.41 245.428 2463.637 244.462 2461.982 L 241.483 2457.072 C 240.872 2456.194 240.328 2455.272 239.855 2454.313" fill="rgb(201,206,209)"/></g></g><g transform="matrix(1,0,0,1,598.188,2220.009)"><text transform="matrix(1,0,0,1,0,44.531)" style="font-family:&quot;Roboto&quot;;font-weight:400;font-size:48px;font-style:normal;fill:#ffffff;stroke:none;">You </text><text transform="matrix(1,0,0,1,96.137,44.531)" style="font-family:&quot;Roboto&quot;;font-weight:400;font-size:48px;font-style:normal;fill:#ffffff;stroke:none;">don’t </text><text transform="matrix(1,0,0,1,215.806,44.531)" style="font-family:&quot;Roboto&quot;;font-weight:400;font-size:48px;font-style:normal;fill:#ffffff;stroke:none;">have </text><text transform="matrix(1,0,0,1,330.506,44.531)" style="font-family:&quot;Roboto&quot;;font-weight:400;font-size:48px;font-style:normal;fill:#ffffff;stroke:none;">to </text><text transform="matrix(1,0,0,1,387.034,44.531)" style="font-family:&quot;Roboto&quot;;font-weight:400;font-size:48px;font-style:normal;fill:#ffffff;stroke:none;">be </text><text transform="matrix(1,0,0,1,452.867,44.531)" style="font-family:&quot;Roboto&quot;;font-weight:400;font-size:48px;font-style:normal;fill:#ffffff;stroke:none;">a </text><text transform="matrix(1,0,0,1,492.449,44.531)" style="font-family:&quot;Roboto&quot;;font-weight:400;font-size:48px;font-style:normal;fill:#ffffff;stroke:none;">computer </text><text transform="matrix(1,0,0,1,711.235,44.531)" style="font-family:&quot;Roboto&quot;;font-weight:400;font-size:48px;font-style:normal;fill:#ffffff;stroke:none;">scientist </text><text transform="matrix(1,0,0,1,905.904,44.531)" style="font-family:&quot;Roboto&quot;;font-weight:400;font-size:48px;font-style:normal;fill:#ffffff;stroke:none;">or </text><text transform="matrix(1,0,0,1,962.994,44.531)" style="font-family:&quot;Roboto&quot;;font-weight:400;font-size:48px;font-style:normal;fill:#ffffff;stroke:none;">professional </text><text transform="matrix(1,0,0,1,1241.874,44.531)" style="font-family:&quot;Roboto&quot;;font-weight:400;font-size:48px;font-style:normal;fill:#ffffff;stroke:none;">software </text><text transform="matrix(1,0,0,1,1443.667,44.531)" style="font-family:&quot;Roboto&quot;;font-weight:400;font-size:48px;font-style:normal;fill:#ffffff;stroke:none;">developer </text><text transform="matrix(1,0,0,1,1665.945,44.531)" style="font-family:&quot;Roboto&quot;;font-weight:400;font-size:48px;font-style:normal;fill:#ffffff;stroke:none;">to </text><text transform="matrix(1,0,0,1,0,95.156)" style="font-family:&quot;Roboto&quot;;font-weight:400;font-size:48px;font-style:normal;fill:#ffffff;stroke:none;">write </text><text transform="matrix(1,0,0,1,119.202,95.156)" style="font-family:&quot;Roboto&quot;;font-weight:400;font-size:48px;font-style:normal;fill:#ffffff;stroke:none;">code, </text><text transform="matrix(1,0,0,1,247.756,95.156)" style="font-family:&quot;Roboto&quot;;font-weight:400;font-size:48px;font-style:normal;fill:#ffffff;stroke:none;">and </text><text transform="matrix(1,0,0,1,341.552,95.156)" style="font-family:&quot;Roboto&quot;;font-weight:400;font-size:48px;font-style:normal;fill:#ffffff;stroke:none;">your </text><text transform="matrix(1,0,0,1,448.472,95.156)" style="font-family:&quot;Roboto&quot;;font-weight:400;font-size:48px;font-style:normal;fill:#ffffff;stroke:none;">code </text><text transform="matrix(1,0,0,1,567.604,95.156)" style="font-family:&quot;Roboto&quot;;font-weight:400;font-size:48px;font-style:normal;fill:#ffffff;stroke:none;">doesn’t </text><text transform="matrix(1,0,0,1,738.111,95.156)" style="font-family:&quot;Roboto&quot;;font-weight:400;font-size:48px;font-style:normal;fill:#ffffff;stroke:none;">have </text><text transform="matrix(1,0,0,1,853.469,95.156)" style="font-family:&quot;Roboto&quot;;font-weight:400;font-size:48px;font-style:normal;fill:#ffffff;stroke:none;">to </text><text transform="matrix(1,0,0,1,910.656,95.156)" style="font-family:&quot;Roboto&quot;;font-weight:400;font-size:48px;font-style:normal;fill:#ffffff;stroke:none;">be </text><text transform="matrix(1,0,0,1,977.147,95.156)" style="font-family:&quot;Roboto&quot;;font-weight:400;font-size:48px;font-style:normal;fill:#ffffff;stroke:none;">perfect </text><text transform="matrix(1,0,0,1,1142.779,95.156)" style="font-family:&quot;Roboto&quot;;font-weight:400;font-size:48px;font-style:normal;fill:#ffffff;stroke:none;">in </text><text transform="matrix(1,0,0,1,1195.043,95.156)" style="font-family:&quot;Roboto&quot;;font-weight:400;font-size:48px;font-style:normal;fill:#ffffff;stroke:none;">order </text><text transform="matrix(1,0,0,1,1321.534,95.156)" style="font-family:&quot;Roboto&quot;;font-weight:400;font-size:48px;font-style:normal;fill:#ffffff;stroke:none;">to </text><text transform="matrix(1,0,0,1,1378.721,95.156)" style="font-family:&quot;Roboto&quot;;font-weight:400;font-size:48px;font-style:normal;fill:#ffffff;stroke:none;">be </text><text transform="matrix(1,0,0,1,1445.212,95.156)" style="font-family:&quot;Roboto&quot;;font-weight:400;font-size:48px;font-style:normal;fill:#ffffff;stroke:none;">published. </text><text transform="matrix(1,0,0,1,1679.281,95.156)" style="font-family:&quot;Roboto&quot;;font-weight:400;font-size:48px;font-style:normal;fill:#ffffff;stroke:none;">If </text><text transform="matrix(1,0,0,1,0,145.781)" style="font-family:&quot;Roboto&quot;;font-weight:400;font-size:48px;font-style:normal;fill:#ffffff;stroke:none;">code </text><text transform="matrix(1,0,0,1,116.883,145.781)" style="font-family:&quot;Roboto&quot;;font-weight:400;font-size:48px;font-style:normal;fill:#ffffff;stroke:none;">produces </text><text transform="matrix(1,0,0,1,328.148,145.781)" style="font-family:&quot;Roboto&quot;;font-weight:400;font-size:48px;font-style:normal;fill:#ffffff;stroke:none;">paper-ready </text><text transform="matrix(1,0,0,1,592.477,145.781)" style="font-family:&quot;Roboto&quot;;font-weight:400;font-size:48px;font-style:normal;fill:#ffffff;stroke:none;">results, </text><text transform="matrix(1,0,0,1,758.742,145.781)" style="font-family:&quot;Roboto&quot;;font-weight:400;font-size:48px;font-style:normal;fill:#ffffff;stroke:none;">the </text><text transform="matrix(1,0,0,1,838.172,145.781)" style="font-family:&quot;Roboto&quot;;font-weight:400;font-size:48px;font-style:normal;fill:#ffffff;stroke:none;">code </text><text transform="matrix(1,0,0,1,955.055,145.781)" style="font-family:&quot;Roboto&quot;;font-weight:400;font-size:48px;font-style:normal;fill:#ffffff;stroke:none;">too </text><text transform="matrix(1,0,0,1,1037.367,145.781)" style="font-family:&quot;Roboto&quot;;font-weight:400;font-size:48px;font-style:normal;fill:#ffffff;stroke:none;">is </text><text transform="matrix(1,0,0,1,1085.648,145.781)" style="font-family:&quot;Roboto&quot;;font-weight:400;font-size:48px;font-style:normal;fill:#ffffff;stroke:none;">paper-ready.</text></g><g transform="matrix(1,0,0,1,603.373,2538.003)"><text transform="matrix(1,0,0,1,0,44.531)" style="font-family:&quot;Roboto&quot;;font-weight:400;font-size:48px;font-style:normal;fill:#ffffff;stroke:none;">When </text><text transform="matrix(1,0,0,1,136.219,44.531)" style="font-family:&quot;Roboto&quot;;font-weight:400;font-size:48px;font-style:normal;fill:#ffffff;stroke:none;">reviewing </text><text transform="matrix(1,0,0,1,354.634,44.531)" style="font-family:&quot;Roboto&quot;;font-weight:400;font-size:48px;font-style:normal;fill:#ffffff;stroke:none;">code </text><text transform="matrix(1,0,0,1,474.916,44.531)" style="font-family:&quot;Roboto&quot;;font-weight:400;font-size:48px;font-style:normal;fill:#ffffff;stroke:none;">be </text><text transform="matrix(1,0,0,1,542.558,44.531)" style="font-family:&quot;Roboto&quot;;font-weight:400;font-size:48px;font-style:normal;fill:#ffffff;stroke:none;">nice </text><text transform="matrix(1,0,0,1,646.527,44.531)" style="font-family:&quot;Roboto&quot;;font-weight:400;font-size:48px;font-style:normal;fill:#ffffff;stroke:none;">and </text><text transform="matrix(1,0,0,1,741.473,44.531)" style="font-family:&quot;Roboto&quot;;font-weight:400;font-size:48px;font-style:normal;fill:#ffffff;stroke:none;">provide </text><text transform="matrix(1,0,0,1,914.7,44.531)" style="font-family:&quot;Roboto&quot;;font-weight:400;font-size:48px;font-style:normal;fill:#ffffff;stroke:none;">constructive </text><text transform="matrix(1,0,0,1,1193.232,44.531)" style="font-family:&quot;Roboto&quot;;font-weight:400;font-size:48px;font-style:normal;fill:#ffffff;stroke:none;">criticism. </text><text transform="matrix(1,0,0,1,1405.085,44.531)" style="font-family:&quot;Roboto&quot;;font-weight:400;font-size:48px;font-style:normal;fill:#ffffff;stroke:none;">It </text><text transform="matrix(1,0,0,1,1449.101,44.531)" style="font-family:&quot;Roboto&quot;;font-weight:400;font-size:48px;font-style:normal;fill:#ffffff;stroke:none;">is </text><text transform="matrix(1,0,0,1,1500.781,44.531)" style="font-family:&quot;Roboto&quot;;font-weight:400;font-size:48px;font-style:normal;fill:#ffffff;stroke:none;">important </text><text transform="matrix(1,0,0,1,0,95.156)" style="font-family:&quot;Roboto&quot;;font-weight:400;font-size:48px;font-style:normal;fill:#ffffff;stroke:none;">recognise </text><text transform="matrix(1,0,0,1,221.297,95.156)" style="font-family:&quot;Roboto&quot;;font-weight:400;font-size:48px;font-style:normal;fill:#ffffff;stroke:none;">that </text><text transform="matrix(1,0,0,1,317.086,95.156)" style="font-family:&quot;Roboto&quot;;font-weight:400;font-size:48px;font-style:normal;fill:#ffffff;stroke:none;">people </text><text transform="matrix(1,0,0,1,472.711,95.156)" style="font-family:&quot;Roboto&quot;;font-weight:400;font-size:48px;font-style:normal;fill:#ffffff;stroke:none;">make </text><text transform="matrix(1,0,0,1,602.531,95.156)" style="font-family:&quot;Roboto&quot;;font-weight:400;font-size:48px;font-style:normal;fill:#ffffff;stroke:none;">mistakes </text><text transform="matrix(1,0,0,1,809.18,95.156)" style="font-family:&quot;Roboto&quot;;font-weight:400;font-size:48px;font-style:normal;fill:#ffffff;stroke:none;">in </text><text transform="matrix(1,0,0,1,859.195,95.156)" style="font-family:&quot;Roboto&quot;;font-weight:400;font-size:48px;font-style:normal;fill:#ffffff;stroke:none;">good </text><text transform="matrix(1,0,0,1,979.828,95.156)" style="font-family:&quot;Roboto&quot;;font-weight:400;font-size:48px;font-style:normal;fill:#ffffff;stroke:none;">faith.</text></g><g transform="matrix(1,0,0,1,598.558,2404.175)"><text transform="matrix(1,0,0,1,0,44.531)" style="font-family:&quot;Roboto&quot;;font-weight:400;font-size:48px;font-style:normal;fill:#ffffff;stroke:none;">There </text><text transform="matrix(1,0,0,1,138.274,44.531)" style="font-family:&quot;Roboto&quot;;font-weight:400;font-size:48px;font-style:normal;fill:#ffffff;stroke:none;">is </text><text transform="matrix(1,0,0,1,190.767,44.531)" style="font-family:&quot;Roboto&quot;;font-weight:400;font-size:48px;font-style:normal;fill:#ffffff;stroke:none;">always </text><text transform="matrix(1,0,0,1,354.26,44.531)" style="font-family:&quot;Roboto&quot;;font-weight:400;font-size:48px;font-style:normal;fill:#ffffff;stroke:none;">room </text><text transform="matrix(1,0,0,1,483.417,44.531)" style="font-family:&quot;Roboto&quot;;font-weight:400;font-size:48px;font-style:normal;fill:#ffffff;stroke:none;">to </text><text transform="matrix(1,0,0,1,542.566,44.531)" style="font-family:&quot;Roboto&quot;;font-weight:400;font-size:48px;font-style:normal;fill:#ffffff;stroke:none;">improve </text><text transform="matrix(1,0,0,1,731.605,44.531)" style="font-family:&quot;Roboto&quot;;font-weight:400;font-size:48px;font-style:normal;fill:#ffffff;stroke:none;">your </text><text transform="matrix(1,0,0,1,840.489,44.531)" style="font-family:&quot;Roboto&quot;;font-weight:400;font-size:48px;font-style:normal;fill:#ffffff;stroke:none;">skills </text><text transform="matrix(1,0,0,1,965.357,44.531)" style="font-family:&quot;Roboto&quot;;font-weight:400;font-size:48px;font-style:normal;fill:#ffffff;stroke:none;">— </text><text transform="matrix(1,0,0,1,1018.928,44.531)" style="font-family:&quot;Roboto&quot;;font-weight:400;font-size:48px;font-style:normal;fill:#ffffff;stroke:none;">some </text><text transform="matrix(1,0,0,1,1154.647,44.531)" style="font-family:&quot;Roboto&quot;;font-weight:400;font-size:48px;font-style:normal;fill:#ffffff;stroke:none;">intensive </text><text transform="matrix(1,0,0,1,1361.546,44.531)" style="font-family:&quot;Roboto&quot;;font-weight:400;font-size:48px;font-style:normal;fill:#ffffff;stroke:none;">training </text><text transform="matrix(1,0,0,1,1538.867,44.531)" style="font-family:&quot;Roboto&quot;;font-weight:400;font-size:48px;font-style:normal;fill:#ffffff;stroke:none;">courses </text><text transform="matrix(1,0,0,1,0,95.156)" style="font-family:&quot;Roboto&quot;;font-weight:400;font-size:48px;font-style:normal;fill:#ffffff;stroke:none;">such </text><text transform="matrix(1,0,0,1,114.656,95.156)" style="font-family:&quot;Roboto&quot;;font-weight:400;font-size:48px;font-style:normal;fill:#ffffff;stroke:none;">as </text><text transform="matrix(1,0,0,1,177.398,95.156)" style="font-family:&quot;Roboto&quot;;font-weight:400;font-size:48px;font-style:normal;fill:#ffffff;stroke:none;">Software </text><text transform="matrix(1,0,0,1,381.328,95.156)" style="font-family:&quot;Roboto&quot;;font-weight:400;font-size:48px;font-style:normal;fill:#ffffff;stroke:none;">Carpentry </text><text transform="matrix(1,0,0,1,600.281,95.156)" style="font-family:&quot;Roboto&quot;;font-weight:400;font-size:48px;font-style:normal;fill:#ffffff;stroke:none;">only </text><text transform="matrix(1,0,0,1,700.383,95.156)" style="font-family:&quot;Roboto&quot;;font-weight:400;font-size:48px;font-style:normal;fill:#ffffff;stroke:none;">take </text><text transform="matrix(1,0,0,1,803.813,95.156)" style="font-family:&quot;Roboto&quot;;font-weight:400;font-size:48px;font-style:normal;fill:#ffffff;stroke:none;">a </text><text transform="matrix(1,0,0,1,841.805,95.156)" style="font-family:&quot;Roboto&quot;;font-weight:400;font-size:48px;font-style:normal;fill:#ffffff;stroke:none;">day </text><text transform="matrix(1,0,0,1,929.578,95.156)" style="font-family:&quot;Roboto&quot;;font-weight:400;font-size:48px;font-style:normal;fill:#ffffff;stroke:none;">or </text><text transform="matrix(1,0,0,1,985.078,95.156)" style="font-family:&quot;Roboto&quot;;font-weight:400;font-size:48px;font-style:normal;fill:#ffffff;stroke:none;">two.</text></g></g><g id="bad code"><rect x="66.188" y="1349.708" width="2317.995" height="301.837" transform="matrix(1,0,0,1,0,0)" fill="rgb(57,151,211)"/><rect x="598.504" y="1299.232" width="1785.68" height="108" transform="matrix(1,0,0,1,0,0)" fill="rgb(235,235,235)"/><g transform="matrix(1,0,0,1,620.875,1306.149)"><text transform="matrix(1,0,0,1,0,75.445)" style="font-family:&quot;Roboto Slab&quot;;font-weight:700;font-size:72px;font-style:normal;fill:#5f5f60;stroke:none;">Incorrect code results in incorrect science</text></g><g transform="matrix(1,0,0,1,603.319,1435.232)"><text transform="matrix(1,0,0,1,0,44.531)" style="font-family:&quot;Roboto&quot;;font-weight:400;font-size:48px;font-style:normal;fill:#ffffff;stroke:none;">Published </text><text transform="matrix(1,0,0,1,234.606,44.531)" style="font-family:&quot;Roboto&quot;;font-weight:400;font-size:48px;font-style:normal;fill:#ffffff;stroke:none;">code </text><text transform="matrix(1,0,0,1,363.555,44.531)" style="font-family:&quot;Roboto&quot;;font-weight:400;font-size:48px;font-style:normal;fill:#ffffff;stroke:none;">should </text><text transform="matrix(1,0,0,1,531.247,44.531)" style="font-family:&quot;Roboto&quot;;font-weight:400;font-size:48px;font-style:normal;fill:#ffffff;stroke:none;">be </text><text transform="matrix(1,0,0,1,607.556,44.531)" style="font-family:&quot;Roboto&quot;;font-weight:400;font-size:48px;font-style:normal;fill:#ffffff;stroke:none;">peer </text><text transform="matrix(1,0,0,1,725.536,44.531)" style="font-family:&quot;Roboto&quot;;font-weight:400;font-size:48px;font-style:normal;fill:#ffffff;stroke:none;">reviewed. </text><text transform="matrix(1,0,0,1,952.689,44.531)" style="font-family:&quot;Roboto&quot;;font-weight:400;font-size:48px;font-style:normal;fill:#ffffff;stroke:none;">Ensure </text><text transform="matrix(1,0,0,1,1123.287,44.531)" style="font-family:&quot;Roboto&quot;;font-weight:400;font-size:48px;font-style:normal;fill:#ffffff;stroke:none;">that </text><text transform="matrix(1,0,0,1,1231.143,44.531)" style="font-family:&quot;Roboto&quot;;font-weight:400;font-size:48px;font-style:normal;fill:#ffffff;stroke:none;">at </text><text transform="matrix(1,0,0,1,1296.881,44.531)" style="font-family:&quot;Roboto&quot;;font-weight:400;font-size:48px;font-style:normal;fill:#ffffff;stroke:none;">least </text><text transform="matrix(1,0,0,1,1424.448,44.531)" style="font-family:&quot;Roboto&quot;;font-weight:400;font-size:48px;font-style:normal;fill:#ffffff;stroke:none;">one </text><text transform="matrix(1,0,0,1,1527.686,44.531)" style="font-family:&quot;Roboto&quot;;font-weight:400;font-size:48px;font-style:normal;fill:#ffffff;stroke:none;">reviewer </text><text transform="matrix(1,0,0,1,0,100.781)" style="font-family:&quot;Roboto&quot;;font-weight:400;font-size:48px;font-style:normal;fill:#ffffff;stroke:none;">understands </text><text transform="matrix(1,0,0,1,278.944,100.781)" style="font-family:&quot;Roboto&quot;;font-weight:400;font-size:48px;font-style:normal;fill:#ffffff;stroke:none;">code </text><text transform="matrix(1,0,0,1,396.357,100.781)" style="font-family:&quot;Roboto&quot;;font-weight:400;font-size:48px;font-style:normal;fill:#ffffff;stroke:none;">well </text><text transform="matrix(1,0,0,1,493.566,100.781)" style="font-family:&quot;Roboto&quot;;font-weight:400;font-size:48px;font-style:normal;fill:#ffffff;stroke:none;">enough </text><text transform="matrix(1,0,0,1,665.096,100.781)" style="font-family:&quot;Roboto&quot;;font-weight:400;font-size:48px;font-style:normal;fill:#ffffff;stroke:none;">to </text><text transform="matrix(1,0,0,1,720.563,100.781)" style="font-family:&quot;Roboto&quot;;font-weight:400;font-size:48px;font-style:normal;fill:#ffffff;stroke:none;">evaluate </text><text transform="matrix(1,0,0,1,913.093,100.781)" style="font-family:&quot;Roboto&quot;;font-weight:400;font-size:48px;font-style:normal;fill:#ffffff;stroke:none;">it </text><text transform="matrix(1,0,0,1,952.834,100.781)" style="font-family:&quot;Roboto&quot;;font-weight:400;font-size:48px;font-style:normal;fill:#ffffff;stroke:none;">critically, </text><text transform="matrix(1,0,0,1,1152.254,100.781)" style="font-family:&quot;Roboto&quot;;font-weight:400;font-size:48px;font-style:normal;fill:#ffffff;stroke:none;">as </text><text transform="matrix(1,0,0,1,1215.526,100.781)" style="font-family:&quot;Roboto&quot;;font-weight:400;font-size:48px;font-style:normal;fill:#ffffff;stroke:none;">well </text><text transform="matrix(1,0,0,1,1312.736,100.781)" style="font-family:&quot;Roboto&quot;;font-weight:400;font-size:48px;font-style:normal;fill:#ffffff;stroke:none;">as </text><text transform="matrix(1,0,0,1,1376.008,100.781)" style="font-family:&quot;Roboto&quot;;font-weight:400;font-size:48px;font-style:normal;fill:#ffffff;stroke:none;">domain </text><text transform="matrix(1,0,0,1,1549.178,100.781)" style="font-family:&quot;Roboto&quot;;font-weight:400;font-size:48px;font-style:normal;fill:#ffffff;stroke:none;">experts </text><text transform="matrix(1,0,0,1,0,157.031)" style="font-family:&quot;Roboto&quot;;font-weight:400;font-size:48px;font-style:normal;fill:#ffffff;stroke:none;">who </text><text transform="matrix(1,0,0,1,101.766,157.031)" style="font-family:&quot;Roboto&quot;;font-weight:400;font-size:48px;font-style:normal;fill:#ffffff;stroke:none;">can </text><text transform="matrix(1,0,0,1,191.367,157.031)" style="font-family:&quot;Roboto&quot;;font-weight:400;font-size:48px;font-style:normal;fill:#ffffff;stroke:none;">comment </text><text transform="matrix(1,0,0,1,407.484,157.031)" style="font-family:&quot;Roboto&quot;;font-weight:400;font-size:48px;font-style:normal;fill:#ffffff;stroke:none;">on </text><text transform="matrix(1,0,0,1,473.227,157.031)" style="font-family:&quot;Roboto&quot;;font-weight:400;font-size:48px;font-style:normal;fill:#ffffff;stroke:none;">the </text><text transform="matrix(1,0,0,1,552.656,157.031)" style="font-family:&quot;Roboto&quot;;font-weight:400;font-size:48px;font-style:normal;fill:#ffffff;stroke:none;">specific </text><text transform="matrix(1,0,0,1,731.859,157.031)" style="font-family:&quot;Roboto&quot;;font-weight:400;font-size:48px;font-style:normal;fill:#ffffff;stroke:none;">scientific </text><text transform="matrix(1,0,0,1,937.945,157.031)" style="font-family:&quot;Roboto&quot;;font-weight:400;font-size:48px;font-style:normal;fill:#ffffff;stroke:none;">area.</text></g><g id="M2-incorrect_science"><g id="Layer_1-2"><path d=" M 484.587 1563.936 L 499.884 1572.443 L 511.774 1555.783 L 529.443 1568.252 L 535.552 1560.68 L 517.024 1529.076 C 516.873 1528.798 516.645 1528.621 516.494 1528.369 L 516.494 1479.726 L 520.937 1472.153 C 521.578 1471.119 521.6 1469.817 520.993 1468.762 C 520.387 1467.707 519.25 1467.071 518.034 1467.105 L 485.395 1467.105 C 484.179 1467.071 483.042 1467.707 482.435 1468.762 C 481.829 1469.817 481.851 1471.119 482.492 1472.153 L 486.935 1479.726 L 486.935 1528.369 C 486.783 1528.621 486.556 1528.798 486.405 1529.076 L 462.222 1571.256 L 474.339 1578.35 L 484.587 1563.936 Z " fill="rgb(238,110,49)"/><path d=" M 557.488 1622.045 L 443.972 1622.045 L 436.777 1562.144 L 557.488 1562.144 L 557.488 1622.045 L 557.488 1622.045 Z " fill="none"/><path d=" M 479.715 1430.25 C 479.715 1426.363 482.871 1423.208 486.758 1423.208 C 490.645 1423.208 493.801 1426.363 493.801 1430.25 C 493.801 1434.137 490.645 1437.293 486.758 1437.293 C 482.871 1437.293 479.715 1434.137 479.715 1430.25 Z " fill="rgb(246,142,73)"/><path d=" M 512.051 1414.373 C 512.051 1407.17 517.899 1401.322 525.102 1401.322 C 532.304 1401.322 538.152 1407.17 538.152 1414.373 C 538.152 1421.575 532.304 1427.423 525.102 1427.423 C 517.899 1427.423 512.051 1421.575 512.051 1414.373 Z " fill="rgb(246,142,73)"/><path d=" M 501.904 1445.825 C 501.904 1441.13 505.715 1437.318 510.41 1437.318 C 515.105 1437.318 518.917 1441.13 518.917 1445.825 C 518.917 1450.52 515.105 1454.332 510.41 1454.332 C 505.715 1454.332 501.904 1450.52 501.904 1445.825 Z " fill="rgb(246,142,73)"/><path d=" M 552.667 1590.769 L 538.632 1566.41 L 531.059 1577.466 L 513.137 1565.4 L 502.207 1582.767 L 486.203 1573.074 L 475.878 1587.715 L 459.344 1576.381 L 450.838 1590.264 C 447.755 1595.832 447.805 1602.605 450.968 1608.127 C 454.132 1613.648 459.949 1617.117 466.311 1617.274 L 536.764 1617.274 C 550.37 1617.274 559.407 1602.431 552.667 1590.769 Z " fill="rgb(246,142,73)"/><path d=" M 508.189 1560.781 L 468.23 1560.781 L 462.222 1571.256 L 474.339 1578.35 L 484.587 1563.936" fill="rgb(246,142,73)"/><path d=" M 515.434 1560.781 L 518.892 1560.781 L 529.494 1568.252 L 535.603 1560.781 L 535.603 1560.781 L 511.925 1560.781" fill="rgb(246,142,73)"/><path d=" M 484.587 1563.936 L 499.884 1572.443 L 508.189 1560.781" fill="rgb(246,142,73)"/><line x1="675.548" y1="1569.868" x2="675.422" y2="1570.045"/></g></g><g id="M2-equals"><g id="Layer_1-2"><path d=" M 336.221 1491.784 L 408.297 1491.784 L 408.297 1506.028 L 336.221 1506.028 L 336.221 1491.784 Z  M 336.221 1521.697 L 408.297 1521.697 L 408.297 1535.941 L 336.221 1535.941 L 336.221 1521.697 Z " fill="rgb(95,95,96)"/></g></g><g id="M2-incorrect_code"><g id="Layer_1-2"><path d=" M 167.818 1497.948 L 132.374 1533.392 C 122.941 1542.878 122.941 1558.202 132.374 1567.688 L 152.71 1588.024 C 162.196 1597.457 177.52 1597.457 187.006 1588.024 L 222.45 1552.58" fill="none" vector-effect="non-scaling-stroke" stroke-width="6.578" stroke="rgb(201,206,209)" stroke-linejoin="miter" stroke-linecap="butt" stroke-miterlimit="10"/><path d=" M 241.575 1533.455 L 273.066 1501.964 C 282.499 1492.477 282.499 1477.154 273.066 1467.667 L 252.731 1447.332 C 243.244 1437.899 227.921 1437.899 218.434 1447.332 L 186.943 1478.823" fill="none" vector-effect="non-scaling-stroke" stroke-width="6.578" stroke="rgb(201,206,209)" stroke-linejoin="miter" stroke-linecap="butt" stroke-miterlimit="10"/><line x1="135.275" y1="1446.343" x2="156.12" y2="1467.189" vector-effect="non-scaling-stroke" stroke-width="2.99" stroke="rgb(201,206,209)" stroke-linejoin="miter" stroke-linecap="butt" stroke-miterlimit="10"/><line x1="120.995" y1="1466.297" x2="147.706" y2="1478.759" vector-effect="non-scaling-stroke" stroke-width="2.99" stroke="rgb(201,206,209)" stroke-linejoin="miter" stroke-linecap="butt" stroke-miterlimit="10"/><line x1="167.978" y1="1458.934" x2="155.547" y2="1432.255" vector-effect="non-scaling-stroke" stroke-width="2.99" stroke="rgb(201,206,209)" stroke-linejoin="miter" stroke-linecap="butt" stroke-miterlimit="10"/><line x1="273.162" y1="1584.135" x2="252.348" y2="1563.29" vector-effect="non-scaling-stroke" stroke-width="2.99" stroke="rgb(201,206,209)" stroke-linejoin="miter" stroke-linecap="butt" stroke-miterlimit="10"/><line x1="287.474" y1="1564.182" x2="260.763" y2="1551.719" vector-effect="non-scaling-stroke" stroke-width="2.99" stroke="rgb(201,206,209)" stroke-linejoin="miter" stroke-linecap="butt" stroke-miterlimit="10"/><line x1="240.459" y1="1571.513" x2="252.922" y2="1598.224" vector-effect="non-scaling-stroke" stroke-width="2.99" stroke="rgb(201,206,209)" stroke-linejoin="miter" stroke-linecap="butt" stroke-miterlimit="10"/></g></g></g><g id="Open over closed"><rect x="0" y="938" width="2316.937" height="324" transform="matrix(1,0,0,1,0,0)" fill="rgb(57,151,211)"/><g id="M1-closed"><g id="Layer_1-2"><path d=" M 1773.54 978.913 L 1782.567 978.913 C 1782.849 978.928 1783.132 978.928 1783.414 978.913 L 1787.802 979.164 C 1792.789 979.539 1797.743 980.261 1802.629 981.327 C 1850.301 991.155 1887.682 1028.192 1897.951 1075.771 C 1898.578 1078.498 1898.985 1081.257 1899.362 1084.015 C 1899.911 1087.564 1900.225 1091.145 1900.302 1094.735 C 1900.302 1095.425 1900.302 1096.146 1900.49 1096.835 L 1900.49 1105.863 C 1900.49 1106.239 1900.49 1106.615 1900.49 1107.023 C 1900.49 1108.151 1900.49 1109.311 1900.49 1110.439 C 1900.16 1114.865 1899.595 1119.27 1898.797 1123.636 C 1890.945 1165.578 1861.879 1200.435 1822.032 1215.698 C 1813.941 1218.83 1805.532 1221.069 1796.955 1222.375 C 1792.311 1223.07 1787.634 1223.531 1782.944 1223.754 C 1771.914 1224.158 1760.879 1223.104 1750.125 1220.619 C 1726.978 1215.181 1705.914 1203.125 1689.502 1185.92 C 1668.296 1163.768 1656.191 1134.454 1655.586 1103.794 C 1655.586 1101.318 1655.586 1098.842 1655.586 1096.365 C 1655.811 1091.562 1656.335 1086.778 1657.153 1082.04 C 1658.435 1074.071 1660.535 1066.256 1663.423 1058.719 C 1668.432 1045.085 1675.866 1032.469 1685.365 1021.48 C 1698.114 1006.661 1714.24 995.126 1732.383 987.846 C 1745.175 982.595 1758.784 979.614 1772.6 979.038 C 1772.913 979.038 1773.226 978.944 1773.54 978.913 Z  M 1871.307 1102.133 C 1871.332 1063.786 1848.25 1029.201 1812.828 1014.511 C 1777.406 999.822 1736.623 1007.922 1709.503 1035.033 C 1682.383 1062.144 1674.269 1102.925 1688.947 1138.352 C 1703.625 1173.779 1738.202 1196.872 1776.549 1196.859 C 1828.87 1196.859 1871.29 1154.454 1871.307 1102.133 Z " fill="rgb(201,206,209)"/><path d=" M 1750.72 1090.786 C 1750.532 1089.344 1748.996 1077.025 1757.648 1068.844 C 1762.993 1064.431 1769.867 1062.312 1776.769 1062.951 C 1781.658 1062.951 1789.84 1062.951 1796.015 1069.22 C 1804.165 1077.307 1802.284 1089.312 1801.908 1090.66" fill="none" vector-effect="non-scaling-stroke" stroke-width="3.992" stroke="rgb(201,206,209)" stroke-linejoin="miter" stroke-linecap="butt" stroke-miterlimit="10"/><rect x="1741.943" y="1096.522" width="68.929" height="44.793" transform="matrix(1,0,0,1,0,0)" fill="none" vector-effect="non-scaling-stroke" stroke-width="3.992" stroke="rgb(201,206,209)" stroke-linejoin="miter" stroke-linecap="butt" stroke-miterlimit="10"/><rect x="1773.54" y="1110.722" width="5.736" height="11.347" transform="matrix(1,0,0,1,0,0)" fill="rgb(201,206,209)"/><clipPath id="_clipPath_BPSAkIczVgSArZouW79ViqV0mmIhqNT2"><rect x="1655.586" y="978.913" width="120.806" height="265.184" transform="matrix(1,0,0,1,0,0)" fill="rgb(255,255,255)"/></clipPath><g clip-path="url(#_clipPath_BPSAkIczVgSArZouW79ViqV0mmIhqNT2)"><g id="Group"><path d=" M 1773.54 978.913 L 1782.567 978.913 L 1783.414 978.913 L 1787.802 979.164 C 1792.789 979.539 1797.743 980.261 1802.629 981.327 C 1830.159 986.984 1854.913 1001.922 1872.749 1023.643 C 1885.158 1038.763 1893.757 1056.639 1897.826 1075.771 C 1898.452 1078.498 1898.86 1081.257 1899.236 1084.015 C 1899.784 1087.553 1900.098 1091.124 1900.176 1094.704 C 1900.176 1095.425 1900.176 1096.146 1900.365 1096.835 L 1900.365 1105.863 C 1900.365 1106.239 1900.365 1106.615 1900.365 1106.991 C 1900.365 1108.151 1900.365 1109.28 1900.365 1110.439 C 1900.034 1114.865 1899.469 1119.27 1898.672 1123.636 C 1890.843 1165.549 1861.831 1200.4 1822.032 1215.698 C 1813.932 1218.802 1805.526 1221.04 1796.955 1222.375 C 1792.311 1223.07 1787.634 1223.531 1782.944 1223.754 C 1776.717 1224.015 1770.48 1223.774 1764.293 1223.033 C 1759.527 1222.524 1754.795 1221.729 1750.125 1220.651 C 1695.609 1207.882 1656.69 1159.774 1655.586 1103.794 C 1655.586 1101.318 1655.586 1098.842 1655.586 1096.365 C 1655.808 1091.562 1656.332 1086.778 1657.153 1082.04 C 1658.435 1074.071 1660.535 1066.256 1663.423 1058.719 C 1668.432 1045.085 1675.866 1032.469 1685.365 1021.48 C 1698.114 1006.661 1714.24 995.126 1732.383 987.846 C 1745.175 982.595 1758.784 979.614 1772.6 979.038 C 1772.913 979.038 1773.226 978.944 1773.54 978.913 Z  M 1871.307 1102.133 C 1871.332 1063.786 1848.25 1029.201 1812.828 1014.511 C 1777.406 999.822 1736.623 1007.922 1709.503 1035.033 C 1682.383 1062.144 1674.269 1102.925 1688.947 1138.352 C 1703.625 1173.779 1738.202 1196.872 1776.549 1196.859 C 1828.863 1196.842 1871.273 1154.447 1871.307 1102.133 Z " fill="rgb(241,243,244)"/><path d=" M 1750.72 1090.754 C 1750.532 1089.344 1748.996 1077.025 1757.648 1068.969 C 1763.917 1063.045 1772.129 1063.076 1776.769 1063.107 C 1781.408 1063.139 1789.84 1063.107 1796.015 1069.377 C 1804.165 1077.495 1802.284 1089.5 1801.908 1090.817" fill="none" vector-effect="non-scaling-stroke" stroke-width="3.992" stroke="rgb(241,243,244)" stroke-linejoin="miter" stroke-linecap="butt" stroke-miterlimit="10"/><rect x="1741.943" y="1096.522" width="68.929" height="44.793" transform="matrix(1,0,0,1,0,0)" fill="none" vector-effect="non-scaling-stroke" stroke-width="3.992" stroke="rgb(241,243,244)" stroke-linejoin="miter" stroke-linecap="butt" stroke-miterlimit="10"/><rect x="1773.54" y="1110.722" width="5.736" height="11.347" transform="matrix(1,0,0,1,0,0)" fill="rgb(241,243,244)"/></g></g></g></g><g id="M1-open"><g id="Layer_1-2"><path d=" M 1973.059 1101.496 C 1973.059 1032.404 2029.153 976.31 2098.245 976.31 C 2167.337 976.31 2223.431 1032.404 2223.431 1101.496 C 2223.431 1170.588 2167.337 1226.682 2098.245 1226.682 C 2029.153 1226.682 1973.059 1170.588 1973.059 1101.496 Z " fill="none" vector-effect="non-scaling-stroke" stroke-width="8.945" stroke="rgb(238,110,49)" stroke-linejoin="miter" stroke-linecap="butt" stroke-miterlimit="10"/><path d=" M 2098.245 1226.682 C 2053.025 1227.444 2010.909 1203.755 1988.076 1164.715 C 1965.243 1125.674 1965.243 1077.354 1988.076 1038.313 C 2010.909 999.273 2053.025 975.584 2098.245 976.346" fill="none" vector-effect="non-scaling-stroke" stroke-width="8.945" stroke="rgb(246,142,73)" stroke-linejoin="miter" stroke-linecap="butt" stroke-miterlimit="10"/><path d=" M 2075.836 1110.339 L 2094.303 1110.339 C 2092.918 1117.108 2089.671 1123.356 2084.928 1128.38 C 2078.301 1135.54 2069.196 1139.908 2059.464 1140.597 C 2038.772 1142.178 2020.455 1127.303 2017.756 1106.726 C 2015.056 1086.149 2028.917 1067.054 2049.318 1063.244 C 2069.718 1059.434 2089.536 1072.241 2094.445 1092.405 L 2075.801 1092.405 C 2071.593 1083.334 2061.644 1078.41 2051.88 1080.564 C 2042.116 1082.719 2035.163 1091.373 2035.163 1101.372 C 2035.163 1111.371 2042.116 1120.025 2051.88 1122.18 C 2061.644 1124.334 2071.593 1119.41 2075.801 1110.339 L 2075.836 1110.339 Z " fill="rgb(246,142,74)"/><path d=" M 2179.323 1092.44 L 2160.643 1092.44 C 2160.643 1092.121 2160.288 1091.765 2160.075 1091.446 C 2156.003 1083.548 2147.457 1079.007 2138.633 1080.05 C 2129.809 1081.094 2122.559 1087.504 2120.441 1096.134 C 2117.769 1106.508 2123.215 1117.254 2133.162 1121.233 C 2143.109 1125.212 2154.464 1121.187 2159.684 1111.831 C 2160.135 1110.766 2161.236 1110.129 2162.383 1110.268 C 2167.568 1110.268 2172.753 1110.268 2177.938 1110.268 L 2179.146 1110.268 C 2174.635 1129.595 2156.35 1142.469 2136.634 1140.198 C 2116.918 1137.928 2102.038 1121.236 2102.038 1101.39 C 2102.038 1081.543 2116.918 1064.851 2136.634 1062.581 C 2156.35 1060.311 2174.635 1073.184 2179.146 1092.511 L 2179.323 1092.44 Z " fill="rgb(238,110,49)"/></g></g><rect x="0" y="892" width="1582.986" height="108" transform="matrix(1,0,0,1,0,0)" fill="rgb(235,235,235)"/><g transform="matrix(1,0,0,1,72.875,896.459)"><text transform="matrix(1,0,0,1,0,75.445)" style="font-family:&quot;Roboto Slab&quot;;font-weight:700;font-size:72px;font-style:normal;fill:#5f5f60;stroke:none;">Open over closed</text></g><g transform="matrix(1,0,0,1,70,1033)"><text transform="matrix(1,0,0,1,0.07,44.531)" style="font-family:&quot;Roboto&quot;;font-weight:400;font-size:48px;font-style:normal;fill:#ffffff;stroke:none;">Ideally </text><text transform="matrix(1,0,0,1,157.437,44.531)" style="font-family:&quot;Roboto&quot;;font-weight:400;font-size:48px;font-style:normal;fill:#ffffff;stroke:none;">scientific </text><text transform="matrix(1,0,0,1,371.334,44.531)" style="font-family:&quot;Roboto&quot;;font-weight:400;font-size:48px;font-style:normal;fill:#ffffff;stroke:none;">code </text><text transform="matrix(1,0,0,1,496.029,44.531)" style="font-family:&quot;Roboto&quot;;font-weight:400;font-size:48px;font-style:normal;fill:#ffffff;stroke:none;">should </text><text transform="matrix(1,0,0,1,659.465,44.531)" style="font-family:&quot;Roboto&quot;;font-weight:400;font-size:48px;font-style:normal;fill:#ffffff;stroke:none;">be </text><text transform="matrix(1,0,0,1,731.519,44.531)" style="font-family:&quot;Roboto&quot;;font-weight:400;font-size:48px;font-style:normal;fill:#ffffff;stroke:none;">released </text><text transform="matrix(1,0,0,1,933.323,44.531)" style="font-family:&quot;Roboto&quot;;font-weight:400;font-size:48px;font-style:normal;fill:#ffffff;stroke:none;">by </text><text transform="matrix(1,0,0,1,1002.658,44.531)" style="font-family:&quot;Roboto&quot;;font-weight:400;font-size:48px;font-style:normal;fill:#ffffff;stroke:none;">the </text><text transform="matrix(1,0,0,1,1089.899,44.531)" style="font-family:&quot;Roboto&quot;;font-weight:400;font-size:48px;font-style:normal;fill:#ffffff;stroke:none;">time </text><text transform="matrix(1,0,0,1,1204.422,44.531)" style="font-family:&quot;Roboto&quot;;font-weight:400;font-size:48px;font-style:normal;fill:#ffffff;stroke:none;">of </text><text transform="matrix(1,0,0,1,1268.155,44.531)" style="font-family:&quot;Roboto&quot;;font-weight:400;font-size:48px;font-style:normal;fill:#ffffff;stroke:none;">publication, </text><text transform="matrix(1,0,0,1,0.07,100.781)" style="font-family:&quot;Roboto&quot;;font-weight:400;font-size:48px;font-style:normal;fill:#ffffff;stroke:none;">under </text><text transform="matrix(1,0,0,1,134.665,100.781)" style="font-family:&quot;Roboto&quot;;font-weight:400;font-size:48px;font-style:normal;fill:#ffffff;stroke:none;">an </text><text transform="matrix(1,0,0,1,200.165,100.781)" style="font-family:&quot;Roboto&quot;;font-weight:400;font-size:48px;font-style:normal;fill:#ffffff;stroke:none;">open </text><text transform="matrix(1,0,0,1,319.291,100.781)" style="font-family:&quot;Roboto&quot;;font-weight:400;font-size:48px;font-style:normal;fill:#ffffff;stroke:none;">source </text><text transform="matrix(1,0,0,1,477.581,100.781)" style="font-family:&quot;Roboto&quot;;font-weight:400;font-size:48px;font-style:normal;fill:#ffffff;stroke:none;">licence, </text><text transform="matrix(1,0,0,1,650.8,100.781)" style="font-family:&quot;Roboto&quot;;font-weight:400;font-size:48px;font-style:normal;fill:#ffffff;stroke:none;">such </text><text transform="matrix(1,0,0,1,766.481,100.781)" style="font-family:&quot;Roboto&quot;;font-weight:400;font-size:48px;font-style:normal;fill:#ffffff;stroke:none;">that </text><text transform="matrix(1,0,0,1,863.294,100.781)" style="font-family:&quot;Roboto&quot;;font-weight:400;font-size:48px;font-style:normal;fill:#ffffff;stroke:none;">anyone </text><text transform="matrix(1,0,0,1,1030.794,100.781)" style="font-family:&quot;Roboto&quot;;font-weight:400;font-size:48px;font-style:normal;fill:#ffffff;stroke:none;">may </text><text transform="matrix(1,0,0,1,1134.592,100.781)" style="font-family:&quot;Roboto&quot;;font-weight:400;font-size:48px;font-style:normal;fill:#ffffff;stroke:none;">download, </text><text transform="matrix(1,0,0,1,1366.124,100.781)" style="font-family:&quot;Roboto&quot;;font-weight:400;font-size:48px;font-style:normal;fill:#ffffff;stroke:none;">review, </text><text transform="matrix(1,0,0,1,0.07,157.031)" style="font-family:&quot;Roboto&quot;;font-weight:400;font-size:48px;font-style:normal;fill:#ffffff;stroke:none;">re-use </text><text transform="matrix(1,0,0,1,143.508,157.031)" style="font-family:&quot;Roboto&quot;;font-weight:400;font-size:48px;font-style:normal;fill:#ffffff;stroke:none;">and </text><text transform="matrix(1,0,0,1,235.055,157.031)" style="font-family:&quot;Roboto&quot;;font-weight:400;font-size:48px;font-style:normal;fill:#ffffff;stroke:none;">expand </text><text transform="matrix(1,0,0,1,402.75,157.031)" style="font-family:&quot;Roboto&quot;;font-weight:400;font-size:48px;font-style:normal;fill:#ffffff;stroke:none;">upon </text><text transform="matrix(1,0,0,1,521.883,157.031)" style="font-family:&quot;Roboto&quot;;font-weight:400;font-size:48px;font-style:normal;fill:#ffffff;stroke:none;">it.</text></g></g><g transform="matrix(1,0,0,1,74.875,759.839)"><text transform="matrix(1,0,0,1,0,104.785)" style="font-family:&quot;Roboto Slab&quot;;font-weight:700;font-size:100px;font-style:normal;fill:#464646;stroke:none;">Manifesto Principles</text></g><g id="Group"><g transform="matrix(1,0,0,1,80.875,3079.518)"><text transform="matrix(1,0,0,1,0,104.785)" style="font-family:&quot;Roboto Slab&quot;;font-weight:700;font-size:100px;font-style:normal;fill:#464646;stroke:none;">Pledge your support at</text></g><g transform="matrix(1,0,0,1,78.875,3199.518)"><text transform="matrix(1,0,0,1,0,75.445)" style="font-family:&quot;Roboto Mono&quot;;font-weight:400;font-size:72px;font-style:normal;fill:#464646;stroke:none;">codeisscience.com/manifesto</text></g></g><g id="Preamble"><rect x="0" y="411.3" width="2384.848" height="107.717" transform="matrix(1,0,0,1,0,0)" fill="rgb(235,235,235)"/><g transform="matrix(1,0,0,1,79.192,415.617)"><text transform="matrix(1,0,0,1,0,75.445)" style="font-family:&quot;Roboto Slab&quot;;font-weight:700;font-size:72px;font-style:normal;fill:#5f5f60;stroke:none;">Preamble</text></g><g transform="matrix(1,0,0,1,76.317,531.874)"><text transform="matrix(1,0,0,1,0,44.531)" style="font-family:&quot;Roboto&quot;;font-weight:400;font-size:48px;font-style:normal;fill:#5f5f60;stroke:none;">Code is science. Historically, science has been reviewed by its peers to validate it before being published. </text><text transform="matrix(1,0,0,1,0,92.344)" style="font-family:&quot;Roboto&quot;;font-weight:400;font-size:48px;font-style:normal;fill:#5f5f60;stroke:none;">In modern times, computer code forms part of scientific analysis, but it is rarely shared or reviewed.</text></g><g transform="matrix(1,0,0,1,71.871,653.703)"><text transform="matrix(1,0,0,1,0,44.531)" style="font-family:&quot;Roboto&quot;;font-weight:400;font-size:48px;font-style:normal;fill:#5f5f60;stroke:none;">This manifesto is for anyone who deals with code in a scientific setting, including publishers, researchers, </text><text transform="matrix(1,0,0,1,0,92.344)" style="font-family:&quot;Roboto&quot;;font-weight:400;font-size:48px;font-style:normal;fill:#5f5f60;stroke:none;">research software engineers, and administrators.</text></g></g><g id="Header"><rect x="0" y="0" width="2386.772" height="397.063" transform="matrix(1,0,0,1,0,0)" fill="rgb(57,151,211)"/><g transform="matrix(1.001,0,0,1.001,73.024,32.957)"><text transform="matrix(1,0,0,1,0,188.613)" style="font-family:&quot;Roboto Slab&quot;;font-weight:700;font-size:180px;font-style:normal;fill:#ffffff;stroke:none;">Code is Science Manifesto</text></g><g transform="matrix(1.001,0,0,1.001,73.427,295.351)"><text transform="matrix(1,0,0,1,0,33.398)" style="font-family:&quot;Roboto&quot;;font-weight:700;font-size:36px;font-style:normal;fill:#f1f3f4;stroke:none;">Yo Yehudi, </text><text transform="matrix(1,0,0,1,181.107,33.398)" style="font-family:&quot;Roboto&quot;;font-weight:400;font-size:36px;font-style:normal;fill:#f1f3f4;stroke:none;">Department of Genetics, University of Cambridge, </text><text transform="matrix(1,0,0,1,975.832,33.398)" style="font-family:&quot;Roboto&quot;;font-weight:700;font-size:36px;font-style:normal;fill:#f1f3f4;stroke:none;">Selina Aragon</text><text transform="matrix(1,0,0,1,1202.66,33.398)" style="font-family:&quot;Roboto&quot;;font-weight:400;font-size:36px;font-style:normal;fill:#f1f3f4;stroke:none;">, Software Sustainability Institute, </text><text transform="matrix(1,0,0,1,1742.115,33.398)" style="font-family:&quot;Roboto&quot;;font-weight:700;font-size:36px;font-style:normal;fill:#f1f3f4;stroke:none;">Alexander Konovalov</text><text transform="matrix(1,0,0,1,2084.273,33.398)" style="font-family:&quot;Roboto&quot;;font-weight:400;font-size:36px;font-style:normal;fill:#f1f3f4;stroke:none;">, Centre </text><text transform="matrix(1,0,0,1,0,75.586)" style="font-family:&quot;Roboto&quot;;font-weight:400;font-size:36px;font-style:normal;fill:#f1f3f4;stroke:none;">for Interdisciplinary Research in Computational Algebra, University of St Andrews. Poster illustrations by </text><text transform="matrix(1,0,0,1,1662.293,75.586)" style="font-family:&quot;Roboto&quot;;font-weight:700;font-size:36px;font-style:normal;fill:#f1f3f4;stroke:none;">Yee Mun.</text></g><g transform="matrix(1.001,0,0,1.001,73.427,176.844)"><text transform="matrix(1,0,0,1,6.068,102.881)" style="font-family:&quot;Roboto&quot;;font-weight:400;font-size:49px;font-style:normal;fill:#ffffff;stroke:none;">Through working with scientific code, we agree that it needs to be treated as a primary research output</text></g></g><rect x="599.504" y="748.208" width="984.817" height="2364.821" transform="matrix(1,0,0,1,0,0)" fill="none"/><g id="code-is-science-model-2"><g id="Layer_1-2"><path d=" M 2213.894 3126.948 L 2213.894 3115.262 L 2229.336 3115.262 L 2229.336 3126.948 L 2213.894 3126.948 Z  M 2213.894 3180.067 L 2213.894 3132.64 L 2229.336 3132.64 L 2229.336 3180.181 L 2213.894 3180.067 Z " fill="rgb(76,76,77)"/><path d=" M 2262.175 3147.039 C 2261.89 3143.662 2260.278 3142.011 2255.611 3142.011 C 2250.944 3142.011 2249.332 3143.169 2249.332 3145.104 C 2249.332 3146.545 2251.456 3147.911 2255.023 3148.898 C 2268.303 3152.464 2277.788 3154.305 2277.788 3165.611 C 2277.788 3175.097 2272.856 3181.452 2256.161 3181.452 C 2241.781 3181.452 2233.282 3174.983 2233.092 3164.947 L 2248.706 3164.947 C 2248.706 3168.04 2251.399 3170.639 2256.294 3170.639 C 2260.638 3170.639 2262.858 3169.766 2262.858 3167.641 C 2262.858 3165.516 2261.985 3164.359 2258.039 3163.392 C 2239.505 3159.047 2234.762 3154.324 2234.762 3145.236 C 2234.762 3138.179 2239.884 3131.52 2256.009 3131.52 C 2270.2 3131.52 2275.701 3137.401 2276.384 3147.172 L 2262.175 3147.039 Z " fill="rgb(76,76,77)"/><path d=" M 2190.73 3197.255 C 2179.905 3184.55 2173.942 3168.415 2173.903 3151.725 C 2173.813 3135.528 2179.82 3119.891 2190.73 3107.92 L 2202.53 3107.92 C 2194.891 3121.336 2190.797 3136.477 2190.635 3151.914 C 2190.817 3167.775 2194.902 3183.347 2202.53 3197.255 L 2190.73 3197.255 Z " fill="rgb(57,151,211)"/><path d=" M 2282.645 3197.255 C 2290.199 3183.323 2294.248 3167.761 2294.445 3151.914 C 2294.317 3136.485 2290.255 3121.343 2282.645 3107.92 L 2294.445 3107.92 C 2305.368 3119.886 2311.389 3135.523 2311.31 3151.725 C 2311.271 3168.415 2305.307 3184.55 2294.483 3197.255 L 2282.645 3197.255 Z " fill="rgb(229,77,60)"/><path d=" M 1961.446 3152.711 C 1957.975 3171.492 1944.657 3183.975 1925.003 3183.975 C 1902.864 3183.975 1885.942 3169.178 1885.942 3140.816 C 1885.942 3112.834 1900.986 3095.798 1925.25 3095.798 C 1946.402 3095.798 1959.834 3109.078 1961.446 3125.658 L 1940.18 3125.658 C 1938.435 3117.691 1932.592 3114.086 1925.383 3114.086 C 1912.691 3114.086 1907.474 3123.78 1907.474 3139.583 C 1907.474 3155.386 1912.331 3165.46 1924.396 3165.46 C 1933.73 3165.46 1938.207 3160.736 1940.199 3152.768 L 1961.446 3152.711 Z " fill="rgb(76,76,77)"/><path d=" M 1963.325 3150.472 C 1963.325 3131.065 1975.637 3118.222 1995.575 3118.222 C 2015.514 3118.222 2027.409 3130.913 2027.409 3150.472 C 2027.409 3170.032 2015.096 3182.723 1995.575 3182.723 C 1975.257 3182.685 1963.325 3169.5 1963.325 3150.472 Z  M 2007.356 3150.472 C 2007.356 3139.526 2003.562 3135.049 1995.537 3135.049 C 1987.513 3135.049 1983.851 3139.526 1983.851 3150.472 C 1983.851 3161.419 1987.456 3166.029 1995.537 3166.029 C 2003.619 3166.029 2007.356 3161.21 2007.356 3150.472 Z " fill="rgb(76,76,77)"/><path d=" M 2072.901 3181.073 L 2072.655 3174.11 C 2069.694 3179.491 2063.998 3182.792 2057.857 3182.685 C 2042.434 3182.685 2031.298 3170.126 2031.298 3149.733 C 2031.298 3131.938 2040.252 3118.26 2055.96 3118.26 C 2063.055 3118.26 2069.145 3120.365 2072.256 3126.835 L 2072.256 3097.486 L 2091.777 3097.486 L 2091.777 3181.073 L 2072.901 3181.073 Z  M 2073.148 3150.719 C 2073.148 3139.526 2068.671 3135.163 2062.069 3135.163 C 2055.467 3135.163 2051.502 3139.393 2051.502 3150.719 C 2051.502 3162.045 2055.486 3166.522 2062.069 3166.522 C 2068.652 3166.522 2073.148 3161.912 2073.148 3150.719 Z " fill="rgb(76,76,77)"/><path d=" M 2116.933 3155.519 C 2117.426 3161.741 2121.789 3166.901 2127.386 3166.901 C 2131.18 3166.901 2134.842 3165.289 2135.468 3163.107 L 2155.861 3163.107 C 2152.067 3175.666 2141.69 3182.761 2128.372 3182.761 C 2107.504 3182.761 2097.032 3171.379 2097.032 3149.429 C 2097.032 3130.458 2108.111 3118.336 2127.253 3118.336 C 2144.669 3118.336 2156.848 3128.656 2156.848 3148.936 C 2156.842 3151.135 2156.715 3153.333 2156.468 3155.519 L 2116.933 3155.519 Z  M 2136.966 3143.946 C 2136.34 3136.984 2133.172 3134.006 2127.139 3134.006 C 2121.107 3134.006 2117.806 3136.984 2117.198 3143.946 L 2136.966 3143.946 Z " fill="rgb(76,76,77)"/><path d=" M 2017.259 3252.271 C 2015.476 3266.727 2003.315 3276.497 1987.835 3276.497 C 1970.458 3276.497 1958.544 3265.209 1958.544 3242.899 C 1958.544 3220.589 1970.458 3210.819 1988.347 3210.819 C 2005.08 3210.819 2016.368 3220.077 2017.392 3234.78 L 1997.055 3234.78 C 1996.363 3230.519 1992.624 3227.429 1988.309 3227.552 C 1983.358 3227.552 1978.672 3230.72 1978.672 3242.387 C 1978.672 3254.054 1983.358 3259.461 1987.797 3259.461 C 1992.749 3259.461 1996.543 3257.052 1996.922 3252.233 L 2017.259 3252.271 Z " fill="rgb(76,76,77)"/><path d=" M 2024.848 3204.843 L 2024.848 3189.667 L 2045.147 3189.667 L 2045.147 3204.843 L 2024.848 3204.843 Z  M 2024.848 3274.714 L 2024.848 3212.432 L 2045.147 3212.432 L 2045.147 3274.827 L 2024.848 3274.714 Z " fill="rgb(76,76,77)"/><path d=" M 2073.869 3248.685 C 2074.381 3255.022 2078.82 3260.353 2084.53 3260.353 C 2088.457 3260.353 2092.119 3258.702 2092.764 3256.426 L 2113.632 3256.426 C 2109.705 3269.231 2099.176 3276.459 2085.612 3276.459 C 2064.307 3276.459 2053.646 3264.925 2053.646 3242.482 C 2053.646 3223.207 2064.933 3210.781 2084.455 3210.781 C 2102.211 3210.781 2114.637 3221.31 2114.637 3241.97 C 2114.634 3244.213 2114.507 3246.455 2114.258 3248.685 L 2073.869 3248.685 Z  M 2094.281 3236.885 C 2093.655 3229.79 2090.487 3226.736 2084.265 3226.736 C 2078.042 3226.736 2074.779 3229.771 2074.115 3236.885 L 2094.281 3236.885 Z " fill="rgb(76,76,77)"/><path d=" M 2160.111 3274.808 L 2160.111 3235.197 C 2160.111 3229.107 2157.189 3226.698 2151.745 3226.698 C 2146.3 3226.698 2142.733 3229.107 2142.733 3235.197 L 2142.733 3274.771 L 2122.434 3274.771 L 2122.434 3212.432 L 2141.709 3212.432 L 2141.709 3219.034 C 2145.124 3213.342 2150.967 3210.8 2159.086 3210.8 C 2171.645 3210.8 2180.524 3219.034 2180.524 3229.771 L 2180.524 3274.922 L 2160.111 3274.808 Z " fill="rgb(76,76,77)"/><path d=" M 2247.472 3252.271 C 2245.689 3266.727 2233.529 3276.497 2218.048 3276.497 C 2200.671 3276.497 2188.757 3265.209 2188.757 3242.899 C 2188.757 3220.589 2200.671 3210.819 2218.561 3210.819 C 2235.293 3210.819 2246.581 3220.077 2247.605 3234.78 L 2227.173 3234.78 C 2226.503 3230.467 2222.713 3227.337 2218.352 3227.495 C 2213.4 3227.495 2208.715 3230.663 2208.715 3242.33 C 2208.715 3253.997 2213.4 3259.404 2217.84 3259.404 C 2222.791 3259.404 2226.585 3256.995 2226.965 3252.176 L 2247.472 3252.271 Z " fill="rgb(76,76,77)"/><path d=" M 2270.56 3248.685 C 2271.072 3255.022 2275.512 3260.353 2281.222 3260.353 C 2285.149 3260.353 2288.81 3258.702 2289.455 3256.426 L 2310.323 3256.426 C 2306.396 3269.231 2295.867 3276.459 2282.303 3276.459 C 2260.999 3276.459 2250.337 3264.925 2250.337 3242.482 C 2250.337 3223.207 2261.625 3210.781 2281.146 3210.781 C 2298.903 3210.781 2311.329 3221.31 2311.329 3241.97 C 2311.325 3244.213 2311.198 3246.455 2310.949 3248.685 L 2270.56 3248.685 Z  M 2290.973 3236.885 C 2290.347 3229.79 2287.179 3226.736 2280.956 3226.736 C 2274.734 3226.736 2271.471 3229.771 2270.807 3236.885 L 2290.973 3236.885 Z " fill="rgb(76,76,77)"/><path d=" M 1832.956 3107.92 C 1832.083 3106.023 1793.629 3119.493 1793.629 3119.493 C 1793.629 3119.493 1755.194 3106.061 1754.302 3107.92 L 1754.454 3108.034 C 1721.425 3177.772 1765.836 3255.458 1765.836 3255.458 C 1766.763 3257.135 1768.53 3258.175 1770.446 3258.171 L 1817.134 3258.171 C 1819.04 3258.192 1820.798 3257.144 1821.687 3255.458 C 1821.687 3255.458 1865.984 3177.677 1832.899 3107.977 L 1832.956 3107.92 Z " fill="rgb(237,240,241)"/><path d=" M 1832.899 3107.939 C 1865.984 3177.696 1821.687 3255.42 1821.687 3255.42 C 1820.798 3257.106 1819.04 3258.154 1817.134 3258.133 L 1793.629 3258.133 L 1793.629 3119.474 C 1813.681 3118.203 1826.126 3112.663 1832.899 3107.939 Z " fill="rgb(189,195,199)"/><path d=" M 1793.629 3060.664 C 1779.04 3060.664 1762.27 3091.112 1754.302 3107.92 C 1761.151 3112.644 1773.577 3118.203 1793.629 3119.474 C 1813.681 3118.184 1826.183 3112.606 1832.956 3107.902 C 1824.988 3091.131 1808.218 3060.664 1793.629 3060.664 Z " fill="rgb(244,122,55)"/><path d=" M 1793.629 3060.664 L 1793.629 3119.474 C 1813.681 3118.184 1826.183 3112.606 1832.956 3107.902 C 1824.988 3091.131 1808.218 3060.664 1793.629 3060.664 Z " fill="rgb(231,88,37)"/><path d=" M 1754.511 3202.946 L 1770.446 3247.604 C 1770.798 3248.25 1770.745 3249.04 1770.311 3249.633 C 1769.876 3250.226 1769.138 3250.515 1768.416 3250.374 C 1768.416 3250.374 1738.67 3247.244 1738.632 3275.188 C 1738.632 3275.188 1738.746 3277.635 1736.545 3277.635 L 1725.106 3277.635 C 1723.29 3277.539 1721.667 3276.474 1720.856 3274.846 C 1720.856 3274.846 1696.042 3218.123 1754.511 3202.946 Z " fill="rgb(244,122,55)"/><path d=" M 1832.747 3202.946 L 1816.811 3247.604 C 1816.46 3248.25 1816.512 3249.04 1816.947 3249.633 C 1817.382 3250.226 1818.12 3250.515 1818.841 3250.374 C 1818.841 3250.374 1848.588 3247.244 1848.626 3275.188 C 1848.626 3275.188 1848.512 3277.635 1850.713 3277.635 L 1862.095 3277.635 C 1863.911 3277.539 1865.534 3276.474 1866.345 3274.846 C 1866.345 3274.846 1891.216 3218.123 1832.747 3202.946 Z " fill="rgb(231,88,37)"/><path d=" M 1764.812 3159.882 C 1764.812 3144.061 1777.656 3131.217 1793.477 3131.217 C 1809.298 3131.217 1822.142 3144.061 1822.142 3159.882 C 1822.142 3175.703 1809.298 3188.547 1793.477 3188.547 C 1777.656 3188.547 1764.812 3175.703 1764.812 3159.882 Z " fill="rgb(76,122,189)"/><path d=" M 1793.401 3182.97 C 1780.66 3182.928 1770.362 3172.573 1770.389 3159.832 C 1770.417 3147.091 1780.761 3136.781 1793.502 3136.794 C 1806.243 3136.808 1816.565 3147.141 1816.565 3159.882 C 1816.56 3166.017 1814.115 3171.898 1809.77 3176.229 C 1805.425 3180.56 1799.536 3182.985 1793.401 3182.97 L 1793.401 3182.97 Z " fill="rgb(237,240,241)"/><path d=" M 1932.876 3215.448 C 1932.743 3208.486 1928.684 3204.843 1918.61 3204.843 C 1910.623 3204.843 1906.431 3206.873 1906.431 3212.432 C 1906.431 3215.733 1908.593 3218.901 1917.339 3221.443 C 1943.709 3229.183 1955.774 3232.598 1955.774 3252.005 C 1955.774 3268.491 1942.703 3277.749 1923.182 3277.749 C 1896.926 3277.749 1885.524 3268.112 1884.879 3249.596 L 1904.97 3249.596 C 1905.216 3256.198 1911.951 3260.239 1920.147 3260.239 C 1931.814 3260.239 1935.323 3257.317 1935.323 3252.005 C 1935.323 3247.319 1932.288 3245.157 1923.41 3242.368 C 1896.224 3233.964 1886.72 3229.657 1886.72 3213.304 C 1886.72 3198.716 1897.116 3187.807 1918.287 3187.807 C 1938.7 3187.807 1951.638 3199.095 1952.663 3215.448 L 1932.876 3215.448 Z " fill="rgb(76,76,77)"/><rect x="1776.308" y="3260.372" width="24.226" height="6.583" transform="matrix(1,0,0,1,0,0)" fill="rgb(135,151,202)"/><rect x="1803.665" y="3260.372" width="9.353" height="6.583" transform="matrix(1,0,0,1,0,0)" fill="rgb(250,191,19)"/><rect x="1786.534" y="3270.787" width="30.828" height="6.583" transform="matrix(1,0,0,1,0,0)" fill="rgb(229,77,60)"/><rect x="1772.059" y="3270.787" width="11.762" height="6.583" transform="matrix(1,0,0,1,0,0)" fill="rgb(244,158,30)"/><rect x="1786.534" y="3300.932" width="8.271" height="6.583" transform="matrix(1,0,0,1,0,0)" fill="rgb(244,158,30)"/><rect x="1797.897" y="3300.932" width="17.131" height="6.583" transform="matrix(1,0,0,1,0,0)" fill="rgb(59,151,211)"/><rect x="1772.059" y="3300.932" width="11.762" height="6.583" transform="matrix(1,0,0,1,0,0)" fill="rgb(80,186,111)"/><rect x="1781.108" y="3280.253" width="12.369" height="6.583" transform="matrix(1,0,0,1,0,0)" fill="rgb(80,186,111)"/><rect x="1797.328" y="3280.253" width="12.369" height="6.583" transform="matrix(1,0,0,1,0,0)" fill="rgb(250,191,19)"/><rect x="1785.794" y="3310.417" width="20.318" height="6.583" transform="matrix(1,0,0,1,0,0)" fill="rgb(146,94,167)"/><rect x="1761.928" y="3280.253" width="15.575" height="6.583" transform="matrix(1,0,0,1,0,0)" fill="rgb(244,158,30)"/><rect x="1812.903" y="3280.253" width="15.575" height="6.583" transform="matrix(1,0,0,1,0,0)" fill="rgb(59,151,211)"/><rect x="1779.514" y="3290.327" width="31.701" height="6.583" transform="matrix(1,0,0,1,0,0)" fill="rgb(229,77,60)"/><rect x="1758.191" y="3290.327" width="17.321" height="6.583" transform="matrix(1,0,0,1,0,0)" fill="rgb(244,158,30)"/><rect x="1814.895" y="3290.327" width="17.321" height="6.583" transform="matrix(1,0,0,1,0,0)" fill="rgb(244,158,30)"/></g></g></g></svg>